<svg width="24" height="24" viewBox="0 0 24 24" fill="none" xmlns="http://www.w3.org/2000/svg">
<path d="M8.99997 13.5C8.99997 13.3011 9.07899 13.1103 9.21964 12.9697C9.36029 12.829 9.55106 12.75 9.74997 12.75H14.25C14.4489 12.75 14.6396 12.829 14.7803 12.9697C14.921 13.1103 15 13.3011 15 13.5C15 13.6989 14.921 13.8897 14.7803 14.0303C14.6396 14.171 14.4489 14.25 14.25 14.25H9.74997C9.55106 14.25 9.36029 14.171 9.21964 14.0303C9.07899 13.8897 8.99997 13.6989 8.99997 13.5ZM5.78097 6.219C5.71124 6.14927 5.62846 6.09395 5.53735 6.05622C5.44624 6.01848 5.34859 5.99905 5.24997 5.99905C5.15135 5.99905 5.0537 6.01848 4.9626 6.05622C4.87149 6.09395 4.7887 6.14927 4.71897 6.219C4.64924 6.28873 4.59392 6.37152 4.55619 6.46263C4.51845 6.55374 4.49902 6.65139 4.49902 6.75C4.49902 6.84862 4.51845 6.94627 4.55619 7.03738C4.59392 7.12849 4.64924 7.21127 4.71897 7.281L7.18947 9.75L4.71897 12.219C4.64924 12.2887 4.59392 12.3715 4.55619 12.4626C4.51845 12.5537 4.49902 12.6514 4.49902 12.75C4.49902 12.8486 4.51845 12.9463 4.55619 13.0374C4.59392 13.1285 4.64924 13.2113 4.71897 13.281C4.8598 13.4218 5.05081 13.5009 5.24997 13.5009C5.34859 13.5009 5.44624 13.4815 5.53735 13.4438C5.62846 13.406 5.71124 13.3507 5.78097 13.281L8.78097 10.281C8.85082 10.2113 8.90623 10.1286 8.94404 10.0375C8.98185 9.94633 9.00131 9.84865 9.00131 9.75C9.00131 9.65135 8.98185 9.55367 8.94404 9.46255C8.90623 9.37143 8.85082 9.28867 8.78097 9.219L5.78097 6.219Z" fill="#E5E5D5"/>
<path d="M3 1.5C2.20435 1.5 1.44129 1.81607 0.87868 2.37868C0.316071 2.94129 0 3.70435 0 4.5L0 19.5C0 20.2956 0.316071 21.0587 0.87868 21.6213C1.44129 22.1839 2.20435 22.5 3 22.5H21C21.7956 22.5 22.5587 22.1839 23.1213 21.6213C23.6839 21.0587 24 20.2956 24 19.5V4.5C24 3.70435 23.6839 2.94129 23.1213 2.37868C22.5587 1.81607 21.7956 1.5 21 1.5H3ZM21 3C21.3978 3 21.7794 3.15804 22.0607 3.43934C22.342 3.72064 22.5 4.10218 22.5 4.5V19.5C22.5 19.8978 22.342 20.2794 22.0607 20.5607C21.7794 20.842 21.3978 21 21 21H3C2.60218 21 2.22064 20.842 1.93934 20.5607C1.65804 20.2794 1.5 19.8978 1.5 19.5V4.5C1.5 4.10218 1.65804 3.72064 1.93934 3.43934C2.22064 3.15804 2.60218 3 3 3H21Z" fill="#E5E5D5"/>
</svg>
