<svg width="12" height="12" viewBox="0 0 12 12" fill="none" xmlns="http://www.w3.org/2000/svg">
<path d="M2.21325 10.2004L1.371 0.75H10.629L9.78562 10.1989L5.99437 11.25L2.21325 10.2004Z" fill="#1572B6"/>
<path d="M6 10.4468L9.06375 9.59739L9.7845 1.52289H6V10.4468Z" fill="#33A9DC"/>
<path d="M6 4.94662H7.53375L7.6395 3.75974H6V2.60062H8.90625L8.8785 2.91149L8.59387 6.10574H6V4.94662V4.94662Z" fill="white"/>
<path d="M6.00713 7.95674L6.00188 7.95824L4.71113 7.60949L4.62863 6.68512H3.465L3.62738 8.50499L6.0015 9.16424L6.00713 9.16274V7.95674V7.95674Z" fill="#EBEBEB"/>
<path d="M7.43513 6.05661L7.29563 7.60874L6.003 7.95749V9.16349L8.379 8.50499L8.39663 8.30924L8.598 6.05661H7.43513V6.05661Z" fill="white"/>
<path d="M6.00412 2.60062V3.75974H3.20437L3.18112 3.49912L3.12825 2.91149L3.1005 2.60062H6.00412V2.60062ZM6 4.94662V6.10574H4.72537L4.70212 5.84512L4.64962 5.25749L4.62187 4.94662H6V4.94662Z" fill="#EBEBEB"/>
</svg>
