<svg width="24" height="24" viewBox="0 0 24 24" fill="none" xmlns="http://www.w3.org/2000/svg">
<path d="M16.6293 16.5206C14.9418 19.9706 11.9868 22.2919 8.07747 23.055C7.47806 23.2019 6.86272 23.2737 6.2456 23.2687C3.9956 23.2687 1.9331 22.3312 0.931848 20.7956C-0.412527 18.75 -0.870027 14.4131 3.56247 11.205C3.65247 11.6944 3.83622 12.3656 3.9581 12.7631C3.08797 13.4096 2.37574 14.2449 1.87497 15.2062C1.04997 16.8262 1.14185 18.4444 2.11872 19.9406C2.79372 20.9494 3.86247 21.5625 5.23685 21.75C6.95348 21.9673 8.69497 21.6393 10.215 20.8125C12.5981 19.56 14.1862 18.0637 15.225 16.0181C14.9312 15.7146 14.7574 15.3149 14.7356 14.8931C14.7199 14.4405 14.8844 14.0001 15.1931 13.6686C15.5017 13.3371 15.9292 13.1416 16.3818 13.125H16.4456C16.8858 13.1228 17.3101 13.2899 17.6305 13.5918C17.951 13.8936 18.1432 14.3071 18.1672 14.7467C18.1913 15.1863 18.0455 15.6183 17.76 15.9534C17.4744 16.2885 17.0709 16.501 16.6331 16.5469L16.6293 16.5206ZM22.005 12.7331C24.2943 15.3281 24.3562 18.3825 23.4712 20.1544C22.6462 21.7725 20.4712 23.3925 17.5462 23.3925C16.1808 23.3646 14.8375 23.0416 13.6087 22.4456C14.0381 22.14 14.6475 21.6506 14.9831 21.345C15.9307 21.7555 16.9505 21.9735 17.9831 21.9862C19.8768 21.9862 21.3112 21.1012 22.1662 19.4831C22.7156 18.4144 22.7475 17.1619 22.2281 15.8794C21.5908 14.2657 20.4568 12.8966 18.99 11.97C17.0656 10.6728 14.797 9.98122 12.4762 9.98437H11.9268C11.7987 10.2803 11.5903 10.5344 11.3252 10.718C11.0601 10.9016 10.7489 11.0073 10.4268 11.0231H10.3687C9.92325 11.0176 9.49747 10.8387 9.1818 10.5244C8.86613 10.21 8.68544 9.78496 8.67812 9.33951C8.6708 8.89407 8.83741 8.46332 9.14258 8.13875C9.44775 7.81418 9.86742 7.62136 10.3125 7.60125H10.3743C10.6845 7.60148 10.9886 7.68718 11.2532 7.84892C11.5178 8.01067 11.7327 8.24221 11.8743 8.51812H12.3637C16.2637 8.51812 19.6875 10.0144 22.005 12.7331ZM6.48935 17.0456C6.45724 16.7343 6.53267 16.4213 6.7031 16.1587C4.9931 13.1962 4.0781 9.44062 5.48247 5.53125C6.48935 2.59312 9.02435 0.607498 11.7731 0.607498C14.7056 0.607498 17.76 3.17437 18.1256 8.12062C17.6681 7.96875 17.0006 7.74562 16.5993 7.66312C16.5 6.045 15.1331 2.01375 11.895 2.07375C10.7343 2.10562 9.02435 2.655 8.14497 3.78375C7.05722 5.13116 6.42443 6.78862 6.33747 8.51812C6.13136 10.8896 6.68774 13.2649 7.9256 15.2981C7.99393 15.2732 8.06678 15.2629 8.13935 15.2681H8.19935C8.65287 15.2599 9.09107 15.4322 9.41756 15.7471C9.74405 16.062 9.93208 16.4937 9.94028 16.9472C9.94849 17.4007 9.7762 17.8389 9.46131 18.1654C9.14643 18.4919 8.71474 18.6799 8.26122 18.6881H8.19935C7.75691 18.6866 7.33214 18.5143 7.01357 18.2073C6.695 17.9002 6.50722 17.4821 6.48935 17.04V17.0456Z" fill="#764ABC"/>
</svg>
