<svg width="24" height="24" viewBox="0 0 24 24" fill="none" xmlns="http://www.w3.org/2000/svg">
<path d="M12.4607 0.00263009C12.2444 -0.0116435 12.0284 0.0337591 11.8363 0.133882C11.6441 0.234004 11.4831 0.384998 11.3709 0.57038L2.39529 15.2089C2.27834 15.3995 2.21719 15.6191 2.21878 15.8428C2.22037 16.0664 2.28464 16.2852 2.40429 16.4741L6.82329 23.4465C6.96345 23.6663 7.17148 23.8343 7.4158 23.9251C7.66012 24.0159 7.92738 24.0245 8.17704 23.9496L20.9293 20.1233C21.0931 20.0742 21.2444 19.9906 21.3731 19.878C21.5018 19.7655 21.6048 19.6266 21.6752 19.4708C21.7456 19.315 21.7817 19.1459 21.7811 18.9749C21.7805 18.804 21.7432 18.6351 21.6718 18.4798L13.4743 0.695443C13.3851 0.498209 13.2435 0.329272 13.0648 0.207089C12.8862 0.0849053 12.6774 0.0141766 12.4612 0.00263009H12.4607ZM12.7972 4.49326C12.8926 4.48186 12.989 4.50195 13.0719 4.55045C13.1547 4.59896 13.2195 4.67323 13.2562 4.76194L18.9112 17.8464C18.9364 17.9046 18.949 17.9674 18.9481 18.0308C18.9472 18.0942 18.9329 18.1566 18.9061 18.214C18.8793 18.2715 18.8407 18.3226 18.7927 18.364C18.7447 18.4053 18.6885 18.4361 18.6277 18.4541L9.81597 21.0836C9.74193 21.1056 9.66346 21.1081 9.58817 21.0908C9.51289 21.0736 9.44335 21.0371 9.38629 20.985C9.32924 20.933 9.28662 20.867 9.26256 20.7936C9.2385 20.7202 9.23382 20.6419 9.24897 20.5661L12.4046 4.85138C12.4223 4.75699 12.4703 4.67094 12.5413 4.60631C12.6123 4.54167 12.7025 4.50198 12.7982 4.49326H12.7972Z" fill="#2D3748"/>
</svg>
