<svg width="24" height="24" viewBox="0 0 24 24" fill="none" xmlns="http://www.w3.org/2000/svg">
<path d="M21.2094 4.88737C17.2814 -0.19913 9.97326 -1.13813 4.88657 2.79056C-0.199369 6.71924 -1.13743 14.0274 2.79126 19.1134C6.72069 24.1991 14.0294 25.1366 19.1146 21.2072C24.1985 17.2785 25.1368 9.97256 21.2094 4.88737Z" fill="#F37036"/>
<path d="M17.0771 4.53075C16.6765 4.56276 16.2966 4.72217 15.9932 4.98563C15.6379 5.29404 15.4112 5.72441 15.3577 6.19181C15.3043 6.65921 15.428 7.12966 15.7044 7.51032C15.9805 7.89114 16.3892 8.15467 16.85 8.24891C17.3109 8.34315 17.7903 8.26125 18.1937 8.01938H18.194L18.2233 8.04863C18.3561 7.97246 18.4798 7.88123 18.5917 7.77675C18.937 7.41147 19.127 6.92637 19.1215 6.42375C19.1161 5.92113 18.9156 5.44026 18.5625 5.08257V5.08219L16.9042 6.73013L16.875 6.70107L18.5332 5.05238C18.3413 4.86731 18.1122 4.72514 17.8612 4.63528C17.6102 4.54541 17.3429 4.50991 17.0771 4.53113V4.53075ZM14.8939 7.22832C14.0989 7.227 12.8008 8.12813 9.63129 11.2976L9.64704 11.3138C9.62979 11.3078 9.61235 11.3072 9.61235 11.3072L8.4191 12.4899C8.38846 12.5191 8.36818 12.5574 8.36134 12.5992C8.3545 12.6409 8.36149 12.6837 8.38123 12.7211C8.40097 12.7585 8.43238 12.7885 8.4707 12.8064C8.50901 12.8243 8.55213 12.8292 8.59348 12.8203L10.6399 12.3838C10.6489 12.3753 10.6549 12.3641 10.6571 12.3519L10.7025 12.3988L10.005 13.0907H9.97123L5.8301 17.2644L7.15873 18.5439C7.19589 18.5774 7.24276 18.5982 7.29253 18.6032C7.3423 18.6082 7.39238 18.5973 7.43548 18.5719C7.47896 18.5467 7.51378 18.5089 7.53537 18.4635C7.55696 18.4181 7.56429 18.3673 7.55642 18.3176L7.36235 17.4739C7.35026 17.4569 7.34376 17.4366 7.34376 17.4158C7.34376 17.3949 7.35026 17.3746 7.36235 17.3576C9.17626 16.4929 10.8631 15.3836 12.3757 14.0608L11.5254 13.2101L11.5415 13.2075L11.0372 12.7033L11.0694 12.6707L11.1035 12.7056L11.0859 12.7226L12.4241 14.0901V14.0895C14.9891 11.6606 16.8097 9.70819 16.3363 8.39419C16.3147 8.23706 16.2417 8.09148 16.1287 7.98019V7.98094C16.1 7.95956 16.0698 7.94038 16.0382 7.92357C16.0226 7.90707 16.0089 7.89019 15.9924 7.87407L15.98 7.88644C15.9453 7.86521 15.9088 7.84702 15.8709 7.83207L15.9251 7.77732C15.5884 7.47732 15.3101 7.22907 14.8939 7.22794V7.22832ZM5.80123 17.2894L4.83167 18.2591V18.2599C4.79688 18.2814 4.76983 18.3135 4.75443 18.3514C4.73903 18.3893 4.73607 18.4311 4.74598 18.4708C4.75554 18.5105 4.77738 18.5462 4.80839 18.5727C4.83939 18.5993 4.87798 18.6154 4.91867 18.6188L7.29467 18.7828L5.80123 17.2894Z" fill="white"/>
<path d="M17.2407 4.37062C16.6965 4.36995 16.1739 4.58346 15.7859 4.965C15.5098 5.24756 15.3207 5.60354 15.2413 5.99053C15.1618 6.37752 15.1953 6.77919 15.3377 7.14768C14.4488 6.76706 13.2462 7.43081 9.50535 11.1709C9.50272 11.1766 9.50041 11.1825 9.49842 11.1885C9.49078 11.192 9.48333 11.1958 9.4761 11.2001L8.29317 12.3934C8.23647 12.449 8.19922 12.5215 8.18696 12.6C8.1747 12.6785 8.18808 12.7588 8.2251 12.8291C8.25816 12.8847 8.30496 12.9309 8.36101 12.9632C8.41706 12.9955 8.48047 13.0129 8.54517 13.0136L8.60385 12.9756L10.1834 12.6386L9.42773 13.4012C9.42332 13.4112 9.41993 13.4216 9.4176 13.4323L5.71448 17.1446C5.69971 17.157 5.68749 17.1722 5.67848 17.1892L4.72485 18.1436C4.67733 18.1938 4.64485 18.2563 4.63113 18.324C4.6174 18.3918 4.62298 18.462 4.64723 18.5267C4.6721 18.591 4.71425 18.6472 4.76905 18.689C4.82384 18.7309 4.88914 18.7568 4.95773 18.7639L7.3236 18.9289C7.36396 18.9147 7.39832 18.8873 7.4211 18.8511C7.44144 18.8228 7.45239 18.7889 7.45239 18.754C7.45239 18.7192 7.44144 18.6853 7.4211 18.657L7.41623 18.6523C7.46728 18.6255 7.51227 18.5885 7.54842 18.5436C7.58641 18.4943 7.61296 18.4371 7.62612 18.3763C7.63929 18.3154 7.63875 18.2524 7.62454 18.1918L7.44004 17.4067C9.21012 16.5608 10.8686 15.4989 12.3777 14.2453C12.3923 14.2536 12.4079 14.2601 12.4242 14.2646C12.4718 14.2611 12.5164 14.2406 12.5502 14.2069C15.0908 11.8012 16.5842 10.1527 16.5842 8.844C16.5897 8.66246 16.5624 8.48142 16.5034 8.30962C16.7324 8.40456 16.9766 8.45729 17.2244 8.46525L17.2215 8.466C17.5627 8.45557 17.8963 8.36226 18.1934 8.19412C18.1936 8.19419 18.1939 8.19425 18.1941 8.19431C18.2326 8.20583 18.274 8.20214 18.3098 8.184C18.4531 8.09959 18.5838 7.9953 18.6979 7.87425C18.8913 7.68453 19.0449 7.45818 19.1498 7.20842C19.2547 6.95866 19.3087 6.69051 19.3088 6.41962C19.3087 6.14875 19.2547 5.8806 19.1499 5.63084C19.045 5.38109 18.8914 5.15473 18.6981 4.965C18.6912 4.95873 18.6838 4.95302 18.676 4.94793C18.29 4.57733 17.7756 4.37051 17.2405 4.37081L17.2407 4.37062ZM17.2244 4.70287C17.6033 4.70513 17.9711 4.83115 18.2717 5.06175L16.759 6.58368C16.7538 6.58945 16.749 6.59559 16.7447 6.60206C16.7175 6.62965 16.7015 6.66643 16.6999 6.70519C16.6999 6.7286 16.7052 6.75172 16.7154 6.77281C16.7255 6.79391 16.7403 6.81245 16.7586 6.82706H16.759L17.9027 7.97081C17.5897 8.10733 17.2427 8.14613 16.9072 8.08213C16.5717 8.01813 16.2633 7.85431 16.0225 7.61212C15.5376 7.12462 15.397 6.39262 15.6563 5.75756C15.9156 5.12194 16.5338 4.70662 17.2244 4.70287ZM18.5594 5.34637C18.8067 5.64563 18.9416 6.022 18.9405 6.41025C18.9398 6.86508 18.7586 7.30103 18.4365 7.62225C18.372 7.68299 18.3032 7.73906 18.2307 7.79006L17.3076 6.88125L17.127 6.70068L17.1767 6.651L18.5592 5.346L18.5594 5.34637ZM18.4907 6.13256C18.4568 6.12184 18.4201 6.12391 18.3876 6.13837C18.3554 6.15503 18.3312 6.18375 18.3201 6.21825C18.3147 6.23547 18.3127 6.2536 18.3143 6.27159C18.3159 6.28958 18.3211 6.30707 18.3295 6.32306C18.3628 6.39311 18.3759 6.47106 18.3674 6.54816C18.3589 6.62526 18.3291 6.69847 18.2813 6.75956C18.2691 6.77135 18.2595 6.78561 18.2532 6.80138C18.2469 6.81716 18.244 6.83409 18.2447 6.85106C18.2455 6.88556 18.2579 6.91856 18.2813 6.94331C18.3063 6.95286 18.3339 6.95286 18.3589 6.94331C18.3815 6.94894 18.4051 6.94829 18.4273 6.94145C18.4495 6.93461 18.4694 6.92183 18.4849 6.9045C18.5647 6.80666 18.6152 6.68827 18.6306 6.56298C18.6461 6.43768 18.6258 6.31058 18.5721 6.19631V6.19706C18.5538 6.16629 18.5249 6.14334 18.4907 6.13256ZM14.8763 7.39312C15.1026 7.40063 15.3203 7.48128 15.4969 7.623C15.3067 7.65038 15.1303 7.73851 14.9942 7.87425L10.7179 12.1314L9.87867 11.2922C12.0964 9.08493 13.4524 7.932 14.2954 7.55418C14.469 7.44465 14.671 7.38876 14.8763 7.39312ZM15.6197 7.94812C15.7633 7.94813 15.9011 8.00503 16.0028 8.10637C16.0569 8.15714 16.0996 8.21888 16.1281 8.28745C16.1565 8.35602 16.17 8.42987 16.1676 8.50406C16.1652 8.57797 16.1475 8.65059 16.1157 8.71737C16.0839 8.78415 16.0387 8.84366 15.9829 8.89218L11.436 12.8496L10.9454 12.3589L15.2367 8.10637C15.3384 8.0051 15.4762 7.94808 15.6197 7.94812ZM16.1811 9.204C15.8642 10.4606 14.1848 12.1633 12.4335 13.8178L11.7254 13.1104L16.1811 9.204ZM9.63135 11.5401L9.68273 11.5907L10.3414 12.2494L8.53579 12.6356L9.63135 11.5401ZM10.7175 12.6351L10.7183 12.6358L10.9373 12.8599C10.9382 12.8652 10.9393 12.8704 10.9407 12.8756L10.9553 12.8779L11.0018 12.9255L11.1555 13.083L10.1459 13.2067L10.7177 12.6349L10.7175 12.6351ZM11.4426 13.3993L12.1135 14.0698C10.63 15.3034 9.00216 16.3521 7.26567 17.1928C7.20929 17.2197 7.16396 17.2652 7.1374 17.3217C7.11083 17.3782 7.10468 17.4422 7.11998 17.5027L7.31404 18.3465C7.3212 18.3564 7.32505 18.3683 7.32505 18.3805C7.32505 18.3927 7.3212 18.4047 7.31404 18.4146C7.30338 18.4241 7.28956 18.4294 7.27523 18.4294C7.2609 18.4294 7.24708 18.4241 7.23642 18.4146L6.09229 17.2611L9.61879 13.6828L11.4426 13.3993ZM5.83017 17.5131L5.9931 17.6657L6.83535 18.5079L4.95735 18.3864L5.83017 17.5131Z" fill="#F37036"/>
</svg>
