<svg width="24" height="24" viewBox="0 0 24 24" fill="none" xmlns="http://www.w3.org/2000/svg">
<path d="M21.9278 18.3388C20.641 18.3038 19.6583 18.4236 18.8181 18.7778C18.5794 18.8784 18.1984 18.8813 18.1594 19.1803C18.2907 19.3178 18.3111 19.5233 18.4153 19.6924C18.616 20.0168 18.9546 20.4521 19.2568 20.6801C19.5872 20.9295 19.9275 21.1959 20.2815 21.4118C20.9112 21.7956 21.6141 22.0149 22.2203 22.3995C22.5777 22.6264 22.9326 22.9119 23.2812 23.1677C23.4537 23.2943 23.5693 23.4909 23.7934 23.5703V23.5339C23.6757 23.3839 23.6453 23.178 23.5373 23.0214L23.0616 22.5458C22.5966 21.9285 22.0062 21.3863 21.3786 20.9361C20.8782 20.5768 19.7582 20.0916 19.5495 19.5094L19.513 19.4728C19.8677 19.4327 20.283 19.3044 20.6106 19.2165C21.1607 19.0691 21.6523 19.1072 22.2203 18.9606L22.9885 18.741V18.5948C22.7014 18.3002 22.4967 17.9102 22.1837 17.6436C21.3643 16.9461 20.4703 16.2491 19.5497 15.6679C19.039 15.3458 18.408 15.1363 17.8667 14.8631C17.6847 14.7711 17.3648 14.7233 17.2446 14.5703C16.9602 14.208 16.8055 13.7486 16.5863 13.3266C16.1271 12.4421 15.6762 11.4763 15.2693 10.5458C14.9918 9.91125 14.8105 9.28575 14.4643 8.7165C12.8031 5.98519 11.0151 4.33688 8.24516 2.7165C7.65566 2.37188 6.94597 2.23594 6.19597 2.05781C5.79379 2.03363 5.39122 2.00906 4.98885 1.9845C4.74304 1.88213 4.48766 1.58156 4.25722 1.43569C3.3396 0.855939 0.985724 -0.404998 0.306224 1.25288C-0.122963 2.29931 0.947662 3.32006 1.33035 3.8505C1.59922 4.22213 1.94329 4.63931 2.13529 5.05763C2.26166 5.33269 2.28341 5.6085 2.3916 5.89931C2.65729 6.61594 2.88885 7.39556 3.23291 8.05763C3.40672 8.39288 3.59835 8.74575 3.81829 9.04538C3.95291 9.22931 4.1841 9.31031 4.22047 9.59419C3.99472 9.91031 3.98179 10.4012 3.85485 10.8017C3.28297 12.6045 3.49879 14.8455 4.33054 16.1798C4.58554 16.5896 5.18685 17.4681 6.01335 17.1309C6.73635 16.8366 6.57491 15.9238 6.78172 15.1187C6.82841 14.9363 6.79972 14.802 6.89141 14.6798V14.7163L7.5501 16.0333C8.0376 16.8184 8.90235 17.6387 9.63547 18.1922C10.0155 18.4793 10.3148 18.9754 10.8062 19.1434V19.1066H10.7697C10.6744 18.9583 10.5253 18.8968 10.4038 18.7776C10.1175 18.4969 9.79916 18.1479 9.56254 17.8264C8.89579 16.9213 8.30666 15.9308 7.76985 14.8997C7.51335 14.4071 7.29041 13.8641 7.07441 13.3629C6.99116 13.1698 6.99229 12.8775 6.81866 12.7776C6.58185 13.1447 6.23329 13.4417 6.05029 13.8752C5.7576 14.5682 5.71991 15.4134 5.61135 16.2898C5.54722 16.3127 5.57572 16.2969 5.53804 16.3262C5.02841 16.2034 4.84954 15.6789 4.65997 15.2288C4.1811 14.0906 4.09204 12.2584 4.51354 10.9483C4.62266 10.6091 5.11541 9.54188 4.91591 9.22857C4.82066 8.91619 4.50641 8.73544 4.33072 8.49675C4.11304 8.20163 3.89591 7.81313 3.74497 7.47225C3.3531 6.58519 3.1701 5.589 2.75741 4.692C2.55997 4.26319 2.22641 3.82913 1.95247 3.44813C1.64929 3.02569 1.30954 2.71463 1.07441 2.20406C0.990787 2.02256 0.877349 1.73194 1.0011 1.54538C1.04047 1.41956 1.09635 1.36706 1.22066 1.326C1.43291 1.16231 2.02391 1.38038 2.24479 1.47206C2.83147 1.71581 3.32122 1.94794 3.81829 2.27719C4.0566 2.43544 4.2981 2.74125 4.58647 2.826H4.91572C5.43079 2.94431 6.00772 2.86256 6.48904 3.00881C7.33954 3.26719 8.10172 3.66938 8.79379 4.10644C10.9024 5.43806 12.6267 7.33331 13.806 9.59438C13.9958 9.9585 14.0779 10.3058 14.245 10.692C14.5821 11.4707 15.0068 12.2719 15.3422 13.0335C15.6771 13.7933 16.0033 14.5599 16.4766 15.1922C16.7254 15.5244 17.6862 15.7028 18.123 15.8874C18.429 16.0166 18.9306 16.1516 19.2207 16.3262C19.7743 16.6603 20.311 17.058 20.8305 17.424C21.0898 17.6068 21.888 18.0083 21.9278 18.3388ZM5.57422 4.39988C5.30591 4.39481 5.11616 4.42913 4.91554 4.47281V4.50938H4.9521C5.08016 4.77225 5.3061 4.94175 5.46416 5.16806C5.58604 5.42438 5.7081 5.68031 5.83016 5.93625L5.86654 5.90006C6.09322 5.74013 6.19691 5.48494 6.1956 5.09494C6.10485 4.9995 6.09154 4.87988 6.01279 4.76588C5.90854 4.61381 5.70622 4.52738 5.57422 4.39988Z" fill="#00618A"/>
</svg>
