<svg width="16" height="16" viewBox="0 0 16 16" fill="none" xmlns="http://www.w3.org/2000/svg">
<g id="twemoji:flag-mexico">
<path id="Vector" d="M1.77778 2.22223C1.30628 2.22223 0.854097 2.40953 0.520699 2.74293C0.187301 3.07633 0 3.52851 0 4.00001L0 12C0 12.4715 0.187301 12.9237 0.520699 13.2571C0.854097 13.5905 1.30628 13.7778 1.77778 13.7778H4.88889V2.22223H1.77778Z" fill="#006847"/>
<path id="Vector_2" d="M14.2222 2.22223H11.1111V13.7778H14.2222C14.6937 13.7778 15.1459 13.5905 15.4793 13.2571C15.8127 12.9237 16 12.4715 16 12V4.00001C16 3.52851 15.8127 3.07633 15.4793 2.74293C15.1459 2.40953 14.6937 2.22223 14.2222 2.22223V2.22223Z" fill="#CE1126"/>
<path id="Vector_3" d="M4.88889 2.22223H11.1111V13.7778H4.88889V2.22223Z" fill="#EEEEEE"/>
<path id="Vector_4" d="M10.2222 8C10.2222 8.58937 9.98811 9.1546 9.57136 9.57135C9.15461 9.9881 8.58938 10.2222 8.00001 10.2222C7.41064 10.2222 6.84541 9.9881 6.42866 9.57135C6.01191 9.1546 5.77779 8.58937 5.77779 8H5.33334C5.33334 8.70724 5.6143 9.38552 6.11439 9.88562C6.61449 10.3857 7.29277 10.6667 8.00001 10.6667C8.70725 10.6667 9.38553 10.3857 9.88563 9.88562C10.3857 9.38552 10.6667 8.70724 10.6667 8H10.2222Z" fill="#A6D388"/>
<path id="Vector_5" d="M6.01913 9.00844C6.00595 8.98235 5.98773 8.95912 5.96553 8.94011C5.94332 8.92109 5.91757 8.90667 5.88976 8.89766C5.86195 8.88865 5.83264 8.88524 5.8035 8.88762C5.77436 8.89001 5.74599 8.89814 5.72002 8.91155C5.69397 8.92478 5.67078 8.94302 5.65179 8.96522C5.63279 8.98742 5.61836 9.01314 5.60932 9.04093C5.60028 9.06871 5.59681 9.098 5.5991 9.12713C5.60139 9.15625 5.60941 9.18464 5.62268 9.21067C5.66268 9.28933 5.70668 9.36622 5.75424 9.44V9.44044L5.75602 9.44311V9.44355L5.75957 9.44844V9.44889L5.7609 9.45155L5.76135 9.45244L5.76313 9.45467V9.45511L5.76446 9.45733V9.45822L5.76579 9.46044L5.76624 9.46133L5.76757 9.46355L5.76802 9.46444L5.76935 9.46622L5.77024 9.46755L5.77113 9.46889L5.77157 9.47022L5.7729 9.47244L5.77335 9.47289L5.77424 9.47422L5.77557 9.47689L5.77602 9.47778L5.77735 9.48L5.77779 9.48089L5.7809 9.48533V9.48578L5.78313 9.48889V9.48933C5.80624 9.52355 5.82979 9.55644 5.85468 9.58978C5.87204 9.61311 5.89383 9.63279 5.91881 9.64768C5.94379 9.66258 5.97147 9.67239 6.00025 9.67656C6.02903 9.68073 6.05835 9.67918 6.08653 9.67199C6.11471 9.6648 6.14119 9.65211 6.16446 9.63466C6.18789 9.61729 6.20767 9.59547 6.22266 9.57045C6.23764 9.54542 6.24755 9.51769 6.2518 9.48883C6.25605 9.45997 6.25457 9.43056 6.24744 9.40227C6.24031 9.37399 6.22766 9.34739 6.21024 9.324C6.13928 9.22338 6.07542 9.11794 6.01913 9.00844V9.00844ZM5.79824 8.30533C5.78167 8.18266 5.77484 8.05886 5.77779 7.93511C5.77947 7.87624 5.75771 7.81911 5.71729 7.77628C5.67687 7.73345 5.6211 7.70841 5.56224 7.70667L5.54624 7.70711C5.49015 7.70956 5.43706 7.73314 5.39765 7.77313C5.35824 7.81312 5.33542 7.86654 5.33379 7.92267C5.33276 7.96873 5.33261 8.01481 5.33335 8.06089V8.10089L5.33379 8.10311V8.11555L5.33424 8.11689L5.33379 8.11778V8.11911L5.33424 8.12V8.13289L5.33468 8.13422V8.13911L5.33513 8.14755L5.33557 8.15155V8.15644C5.33957 8.22755 5.34668 8.29822 5.35602 8.36844C5.36429 8.42652 5.39519 8.47897 5.44198 8.51436C5.48877 8.54974 5.54766 8.56519 5.60579 8.55733C5.63501 8.5535 5.66318 8.54394 5.68869 8.52918C5.7142 8.51443 5.73654 8.49477 5.75442 8.47135C5.77231 8.44793 5.78539 8.42121 5.7929 8.39272C5.80042 8.36422 5.80224 8.33453 5.79824 8.30533V8.30533ZM8.15113 10.2164L8.14846 10.2169L8.09335 10.2204C7.98807 10.2247 7.88263 10.2216 7.77779 10.2111C7.71915 10.2052 7.66057 10.2229 7.61494 10.2602C7.5693 10.2975 7.54035 10.3514 7.53446 10.41C7.52857 10.4686 7.54621 10.5272 7.58351 10.5729C7.62081 10.6185 7.67471 10.6474 7.73335 10.6533L7.7889 10.6582L7.79068 10.6587L7.79157 10.6582L7.7929 10.6587H7.79379L7.79646 10.6591H7.79913L7.80046 10.6596H7.8009L7.80357 10.6591L7.8049 10.6596H7.80713L7.80979 10.66L7.81202 10.6604H7.81779L7.82046 10.6609H7.82624C7.89379 10.6653 7.96179 10.6676 8.03024 10.6662H8.04757L8.05068 10.6658L8.05335 10.6662H8.06002L8.06224 10.6658H8.07068L8.07335 10.6653H8.07379L8.07602 10.6658L8.07646 10.6653L8.07913 10.6658H8.07957L8.08179 10.6653H8.08535L8.08802 10.6649H8.09068L8.09113 10.6653L8.09379 10.6649H8.0969L8.09913 10.6644H8.10802L8.11024 10.664H8.11202L8.11379 10.6636L8.11557 10.664H8.11779L8.11957 10.6636H8.12179C8.14046 10.6631 8.15957 10.6613 8.17824 10.6604C8.2358 10.6558 8.2892 10.6286 8.32689 10.5849C8.36457 10.5411 8.3835 10.4843 8.37957 10.4267C8.37843 10.3978 8.37161 10.3695 8.3595 10.3434C8.34739 10.3172 8.33023 10.2936 8.309 10.2741C8.28778 10.2546 8.26291 10.2394 8.23581 10.2295C8.20872 10.2196 8.17994 10.2152 8.15113 10.2164V10.2164ZM7.06713 10.0173C6.95504 9.96537 6.84742 9.90427 6.74535 9.83467C6.70587 9.80744 6.65859 9.79387 6.61068 9.796C6.56414 9.79796 6.51939 9.81451 6.48276 9.84329C6.44614 9.87207 6.41948 9.91163 6.40656 9.95639C6.39364 10.0011 6.39511 10.0488 6.41076 10.0927C6.42641 10.1366 6.45546 10.1744 6.49379 10.2009L6.49424 10.2013L6.4969 10.2027L6.49957 10.2053L6.50224 10.2071L6.5049 10.2093C6.62313 10.2898 6.74846 10.3604 6.87913 10.4209C6.90555 10.4332 6.93416 10.4402 6.96329 10.4415C6.99243 10.4427 7.02153 10.4382 7.04891 10.4281C7.07629 10.4181 7.10142 10.4028 7.12285 10.383C7.14429 10.3632 7.1616 10.3394 7.17379 10.3129C7.18631 10.2865 7.19348 10.2579 7.19489 10.2287C7.1963 10.1995 7.19192 10.1704 7.182 10.1429C7.17209 10.1154 7.15683 10.0902 7.13712 10.0686C7.1174 10.0471 7.09361 10.0296 7.06713 10.0173V10.0173ZM9.30268 9.84044C9.26344 9.8423 9.22539 9.85457 9.19246 9.876C9.08853 9.94203 8.97943 9.99955 8.86624 10.048C8.81734 10.0674 8.77696 10.1036 8.75233 10.1501C8.7277 10.1966 8.72043 10.2503 8.73183 10.3017C8.74322 10.353 8.77254 10.3986 8.81451 10.4303C8.85649 10.462 8.90839 10.4778 8.9609 10.4747C8.9873 10.4734 9.0133 10.4677 9.03779 10.4578L9.09735 10.4311H9.09824L9.1009 10.4293L9.10179 10.4289L9.10357 10.428H9.10535L9.10713 10.4271L9.10802 10.4262L9.11068 10.4258L9.11157 10.4249L9.1129 10.424L9.11513 10.4231L9.11646 10.4227L9.11868 10.4218L9.11957 10.4213L9.12179 10.4204L9.12268 10.42C9.12402 10.4191 9.12402 10.4187 9.1249 10.4187L9.12579 10.4182L9.12846 10.4169H9.12935L9.13202 10.4156L9.13468 10.4142L9.13557 10.4138L9.13779 10.4124L9.13868 10.412L9.14135 10.4107L9.14179 10.4102L9.1449 10.4098L9.14802 10.408L9.1489 10.4076L9.15068 10.4062H9.15157L9.15424 10.4044L9.15779 10.4036L9.16046 10.4018H9.1609L9.16402 10.4L9.16446 10.3996L9.17068 10.3969L9.17379 10.3956L9.18002 10.392L9.18357 10.3907L9.18624 10.3893H9.18668L9.1929 10.3858V10.3853L9.19557 10.3844H9.19602L9.20579 10.3791L9.2089 10.3782L9.21513 10.3747L9.21824 10.3729H9.21868C9.21913 10.3724 9.22002 10.372 9.22179 10.372C9.22268 10.3707 9.22357 10.3702 9.22446 10.3698L9.22802 10.368L9.23068 10.3667V10.3662L9.2369 10.3636H9.23735L9.24046 10.3618L9.2409 10.3613L9.24313 10.36H9.24357L9.24668 10.3582L9.24935 10.3569H9.25024L9.2529 10.3551V10.3547L9.25602 10.3533L9.25646 10.3529L9.25913 10.3516V10.3511L9.26179 10.3502L9.26268 10.3498L9.26446 10.3484L9.26579 10.348L9.26802 10.3467L9.2689 10.3462L9.27113 10.3449L9.27202 10.3444L9.27468 10.3436C9.27424 10.3431 9.27468 10.3431 9.27513 10.3431L9.27779 10.3418L9.27868 10.3413L9.28046 10.34L9.28135 10.3396L9.28402 10.3382L9.2849 10.3378C9.2849 10.3369 9.28579 10.3369 9.28668 10.3364L9.28802 10.336L9.28979 10.3351L9.29113 10.3342L9.2929 10.3333L9.29424 10.3324L9.29557 10.3316L9.2969 10.3302L9.29913 10.3298L9.3009 10.3293L9.30179 10.3284L9.30357 10.3276L9.30535 10.3262L9.30624 10.3258L9.30802 10.3249L9.30979 10.3236L9.31113 10.3227C9.31202 10.3231 9.31246 10.3227 9.31335 10.3222L9.31424 10.3213L9.31602 10.3204L9.31735 10.3196L9.31868 10.3187L9.32046 10.3178L9.32224 10.3164L9.32313 10.316C9.32402 10.3156 9.32579 10.3156 9.32668 10.3147C9.32579 10.3142 9.32579 10.3142 9.32668 10.3142L9.32846 10.3133L9.33157 10.3111L9.33246 10.3107L9.33557 10.3093V10.3089L9.3409 10.3062L9.34446 10.304C9.34722 10.302 9.3502 10.3004 9.35335 10.2991H9.35379C9.38179 10.2822 9.41068 10.2649 9.43824 10.2471C9.48783 10.2154 9.52279 10.1652 9.53546 10.1078C9.54812 10.0503 9.53745 9.99008 9.50579 9.94044C9.48241 9.90874 9.45176 9.88311 9.41641 9.86571C9.38107 9.84831 9.34207 9.83965 9.30268 9.84044V9.84044ZM10.4453 7.788L10.4347 7.78844C10.3775 7.79085 10.3235 7.81519 10.2839 7.85642C10.2442 7.89765 10.222 7.95257 10.2218 8.00978C10.2218 8.13289 10.2107 8.25733 10.1898 8.37822C10.1799 8.43639 10.1935 8.49611 10.2276 8.54425C10.2618 8.59238 10.3136 8.62499 10.3718 8.63489C10.43 8.64479 10.4897 8.63118 10.5378 8.59704C10.586 8.56291 10.6186 8.51106 10.6285 8.45289V8.45066L10.6289 8.44978L10.6293 8.44889L10.6289 8.448L10.6293 8.44711V8.44622L10.6298 8.44533V8.444L10.6302 8.44311V8.43911C10.6311 8.43867 10.6311 8.43778 10.6311 8.43733V8.43467C10.6407 8.377 10.6484 8.31904 10.6542 8.26089L10.6538 8.26044L10.6542 8.25911V8.25867L10.6547 8.25689V8.252L10.6556 8.25066V8.25022L10.6551 8.24889V8.248L10.6556 8.24667V8.24489L10.6565 8.24444L10.6556 8.24311V8.24133C10.6565 8.24089 10.6565 8.24044 10.6565 8.24V8.23155L10.6573 8.23022V8.22978C10.6634 8.1566 10.6665 8.0832 10.6667 8.00978C10.6666 7.95107 10.6432 7.8948 10.6018 7.85324C10.5603 7.81169 10.5041 7.78823 10.4453 7.788ZM10.2485 8.98622C10.2229 8.97207 10.1948 8.9631 10.1658 8.95982C10.1367 8.95654 10.1074 8.95902 10.0793 8.96711C10.0512 8.9752 10.025 8.98875 10.0022 9.00697C9.97936 9.0252 9.96034 9.04775 9.94624 9.07333C9.88658 9.18156 9.81774 9.28445 9.74046 9.38089C9.70416 9.42707 9.68763 9.48574 9.69447 9.54408C9.70131 9.60242 9.73096 9.65567 9.77695 9.69221C9.82295 9.72874 9.88153 9.74558 9.9399 9.73905C9.99828 9.73251 10.0517 9.70313 10.0885 9.65733C10.14 9.59244 10.1893 9.52444 10.2351 9.45511C10.236 9.452 10.2382 9.44889 10.24 9.44622L10.2405 9.44578L10.2422 9.44311V9.44267L10.244 9.43955C10.2449 9.43867 10.2458 9.43778 10.2458 9.43689L10.2462 9.43733L10.248 9.43467V9.43422C10.2489 9.4334 10.2493 9.43228 10.2493 9.43111L10.2502 9.43066L10.252 9.428V9.42755C10.2529 9.42711 10.2529 9.42622 10.2533 9.42533L10.2538 9.42489L10.2556 9.42222L10.256 9.42133L10.2569 9.41911L10.2582 9.41822L10.2591 9.416H10.26L10.2609 9.41333L10.2613 9.41244L10.2631 9.41066L10.2636 9.40978C10.264 9.40889 10.264 9.408 10.2649 9.40755L10.2653 9.40622L10.2671 9.40489C10.2671 9.40444 10.2671 9.404 10.268 9.40355V9.40178L10.2693 9.40089L10.2707 9.39866L10.2711 9.39778L10.2725 9.39511L10.2733 9.39422L10.2742 9.39244L10.2751 9.39111C10.2751 9.39066 10.2751 9.39022 10.276 9.38978C10.276 9.38933 10.276 9.38889 10.2769 9.38844L10.2782 9.38622L10.2787 9.38489L10.2796 9.38355L10.2805 9.38222C10.2813 9.38178 10.2813 9.38133 10.2813 9.38089C10.2822 9.38044 10.2822 9.38 10.2822 9.37911L10.2831 9.37778L10.2845 9.376L10.2858 9.37422V9.37289L10.2867 9.37155L10.288 9.36978L10.2893 9.36844V9.36711L10.2911 9.36489V9.36355C10.292 9.36311 10.2925 9.36266 10.2925 9.36178L10.2933 9.36089L10.2942 9.35955L10.2956 9.35733L10.2965 9.356V9.35511L10.2982 9.35289C10.2982 9.35244 10.2982 9.352 10.2991 9.35155L10.2996 9.35022L10.3009 9.34844L10.3018 9.34667L10.3027 9.34533C10.3031 9.34489 10.3027 9.344 10.3036 9.34355C10.3036 9.34311 10.3036 9.34266 10.3045 9.34266L10.3053 9.34044L10.3062 9.33955L10.3071 9.33689L10.308 9.33644L10.3089 9.33467L10.3098 9.33378L10.3107 9.33155L10.3116 9.33066L10.3125 9.328C10.3133 9.32755 10.3125 9.32711 10.3125 9.32711L10.3142 9.32489L10.3147 9.324L10.3165 9.32178V9.32133L10.3178 9.31866L10.3187 9.31778L10.3196 9.31511V9.31467L10.3218 9.31244L10.3231 9.30978V9.30933L10.3249 9.30622L10.3258 9.30578L10.3369 9.28489C10.3645 9.23349 10.3707 9.17329 10.3541 9.11736C10.3376 9.06143 10.2996 9.01431 10.2485 8.98622V8.98622Z" fill="#5C913B"/>
<path id="Vector_6" d="M7.99999 9.77777C8.73637 9.77777 9.33332 9.57879 9.33332 9.33333C9.33332 9.08787 8.73637 8.88889 7.99999 8.88889C7.26361 8.88889 6.66666 9.08787 6.66666 9.33333C6.66666 9.57879 7.26361 9.77777 7.99999 9.77777Z" fill="#55ACEE"/>
<path id="Vector_7" d="M8.22221 9.77777C8.5904 9.77777 8.88888 9.57879 8.88888 9.33333C8.88888 9.08787 8.5904 8.88889 8.22221 8.88889C7.85402 8.88889 7.55554 9.08787 7.55554 9.33333C7.55554 9.57879 7.85402 9.77777 8.22221 9.77777Z" fill="#FFCC4D"/>
<path id="Vector_8" d="M8.49645 9.45511C8.45803 9.45479 8.42035 9.44457 8.38703 9.42545C8.35371 9.40633 8.32588 9.37894 8.30622 9.34593C8.28657 9.31292 8.27576 9.2754 8.27482 9.237C8.27389 9.19859 8.28287 9.16059 8.30089 9.12666C8.372 8.996 8.44667 8.87733 8.524 8.77333C8.46034 8.77603 8.39662 8.77737 8.33289 8.77733C8.21023 8.77733 8.09823 8.67733 8.09823 8.55466C8.09823 8.432 8.18489 8.33244 8.308 8.33244L8.34445 8.33289C8.476 8.33289 8.61111 8.32489 8.732 8.31377C8.76568 8.31038 8.79968 8.31488 8.83131 8.32691C8.86294 8.33895 8.89133 8.35819 8.91423 8.38311C8.92045 8.37822 8.92667 8.37333 8.93334 8.36933C8.97778 8.34 9.01911 8.31644 9.05778 8.29778C9.08526 8.27658 9.11742 8.26225 9.15156 8.256L9.16756 8.25289C9.25112 8.22578 9.30978 8.22222 9.33334 8.22222C9.36814 8.22209 9.40248 8.23018 9.43358 8.24581C9.46467 8.26145 9.49164 8.2842 9.51229 8.31221C9.53295 8.34022 9.5467 8.37271 9.55244 8.40704C9.55819 8.44137 9.55575 8.47657 9.54534 8.50977C9.50889 8.628 9.42756 8.65466 9.28489 8.68311C9.2476 8.69803 9.21212 8.71711 9.17911 8.74C9.13891 8.76614 9.09141 8.77877 9.04353 8.77605C8.99565 8.77333 8.94988 8.75541 8.91289 8.72489C8.94318 8.76396 8.95955 8.81204 8.95939 8.86148C8.95923 8.91093 8.94255 8.9589 8.912 8.99778C8.83645 9.09422 8.76223 9.20889 8.69156 9.33911C8.67254 9.37426 8.64436 9.4036 8.61001 9.42402C8.57565 9.44445 8.53641 9.45519 8.49645 9.45511V9.45511ZM7.86534 8.74889C7.85553 8.74895 7.84573 8.74835 7.836 8.74711C7.67726 8.72653 7.52035 8.69369 7.36667 8.64889C7.33868 8.64058 7.3126 8.62684 7.28992 8.60845C7.26724 8.59006 7.2484 8.56738 7.23449 8.5417C7.22058 8.51603 7.21187 8.48787 7.20885 8.45882C7.20583 8.42978 7.20856 8.40043 7.21689 8.37244L7.21956 8.36355L7.21423 8.37378C7.19997 8.39926 7.18083 8.42169 7.1579 8.43978C7.13496 8.45787 7.10869 8.47126 7.08058 8.47918C7.05247 8.48711 7.02307 8.48941 6.99407 8.48597C6.96507 8.48252 6.93703 8.4734 6.91156 8.45911C6.7639 8.37726 6.62825 8.27541 6.50845 8.15644C6.46797 8.11453 6.44557 8.0584 6.44608 8.00013C6.44658 7.94186 6.46995 7.88613 6.51116 7.84493C6.55236 7.80372 6.60809 7.78035 6.66636 7.77985C6.72463 7.77934 6.78076 7.80174 6.82267 7.84222C6.91023 7.92978 7.01289 8.00666 7.12845 8.07111C7.17373 8.09649 7.2087 8.13691 7.22729 8.18538C7.24588 8.23385 7.24692 8.28729 7.23023 8.33644C7.25357 8.28966 7.29266 8.25261 7.34062 8.2318C7.38858 8.21099 7.44234 8.20775 7.49245 8.22266C7.61512 8.25911 7.74978 8.28711 7.89245 8.30622C7.94842 8.31334 7.99959 8.34148 8.03558 8.38495C8.07156 8.42841 8.08967 8.48393 8.08622 8.54025C8.08277 8.59657 8.05802 8.64947 8.017 8.68821C7.97598 8.72696 7.92176 8.74865 7.86534 8.74889V8.74889ZM6.77556 7.70933C6.58623 7.70933 6.34134 7.636 6.19289 7.46089C5.96534 7.19244 5.83156 6.848 5.852 6.584C5.85734 6.51333 5.78845 6.45644 5.72089 6.43866C5.68223 6.42844 5.61423 6.42222 5.58223 6.49111C5.56985 6.51787 5.54735 6.53861 5.51968 6.54878C5.49201 6.55895 5.46143 6.55771 5.43467 6.54533C5.40791 6.53295 5.38717 6.51046 5.377 6.48278C5.36683 6.45511 5.36807 6.42453 5.38045 6.39778C5.44978 6.24711 5.60534 6.18 5.77689 6.22355C5.936 6.26489 6.08845 6.408 6.07334 6.60133C6.05734 6.80666 6.17378 7.09422 6.36223 7.31689C6.46134 7.43422 6.63378 7.48178 6.75111 7.48622C6.84667 7.49111 6.89511 7.46933 6.90534 7.46C6.88045 7.40089 6.55111 7.22755 6.41067 7.15378C6.29111 7.09111 6.25556 7.00489 6.24667 6.944C6.21689 6.74178 6.42445 6.53689 6.62534 6.33955C6.696 6.26978 6.76311 6.204 6.79956 6.15555C6.84089 6.10089 6.83423 6.06444 6.82623 6.04178C6.79556 5.95866 6.66267 5.87644 6.50267 5.84089C6.35467 5.808 6.25467 5.73644 6.20578 5.628C6.14134 5.48533 6.17556 5.29866 6.30978 5.05689C6.31687 5.04413 6.32641 5.0329 6.33784 5.02383C6.34927 5.01477 6.36238 5.00804 6.37641 5.00403C6.39044 5.00003 6.40512 4.99883 6.41962 5.0005C6.43412 5.00217 6.44814 5.00668 6.46089 5.01378C6.47365 5.02087 6.48488 5.0304 6.49394 5.04183C6.50301 5.05326 6.50974 5.06637 6.51374 5.0804C6.51775 5.09443 6.51895 5.10912 6.51728 5.12361C6.51561 5.13811 6.5111 5.15213 6.504 5.16489C6.37734 5.39244 6.38978 5.49555 6.40845 5.53689C6.42711 5.57778 6.47467 5.60666 6.55067 5.62355C6.73867 5.66533 6.96489 5.77689 7.03423 5.96444C7.07378 6.07155 7.05378 6.18711 6.97734 6.28889C6.93112 6.35066 6.85823 6.42222 6.78134 6.49822C6.66667 6.61111 6.45289 6.82133 6.46667 6.912C6.46934 6.93066 6.49378 6.94711 6.51423 6.95733C6.848 7.13244 7.06978 7.25911 7.11512 7.41422C7.12304 7.44068 7.12548 7.46849 7.12227 7.49593C7.11906 7.52336 7.11027 7.54986 7.09645 7.57378C7.05334 7.64889 6.96356 7.69511 6.83645 7.70666C6.81734 7.70844 6.79645 7.70933 6.77556 7.70933V7.70933Z" fill="#5C913B"/>
<path id="Vector_9" d="M8.66668 8.44445C8.78941 8.44445 8.8889 8.24546 8.8889 8C8.8889 7.75454 8.78941 7.55556 8.66668 7.55556C8.54395 7.55556 8.44446 7.75454 8.44446 8C8.44446 8.24546 8.54395 8.44445 8.66668 8.44445Z" fill="#FFCC4D"/>
<path id="Vector_10" d="M7.68534 7.63911C7.68534 7.76711 7.532 7.87067 7.34267 7.87067C7.15378 7.87067 7 7.76711 7 7.63911C7 7.51111 7.15334 7.40756 7.34267 7.40756C7.53156 7.40756 7.68534 7.51111 7.68534 7.63911ZM7.15778 5.58267C7.18 5.67689 7.05689 5.78711 6.88267 5.82845C6.70845 5.86978 6.54934 5.82667 6.52667 5.73245C6.50445 5.63778 6.62756 5.52756 6.80134 5.48622C6.976 5.44533 7.13556 5.488 7.15778 5.58267V5.58267Z" fill="#FFCC4D"/>
<path id="Vector_11" d="M10.0147 7.98001C10.0547 8.01112 10.1227 7.65601 10.1124 7.54534C10.1124 7.53778 10.0995 7.30267 10.1493 7.13467C10.18 7.07778 10.1818 6.65334 10.1347 6.54178C10.172 6.53867 10.2169 6.52667 10.2222 6.48134C10.0498 6.5449 10.0093 6.11823 9.84354 5.8729C9.68265 5.62712 9.4831 5.48401 9.27465 5.33467C9.29202 5.29105 9.31633 5.25053 9.34665 5.21467C9.0911 5.34267 8.69287 4.87912 8.10443 4.91378C7.97243 4.92667 7.90976 4.93467 7.87599 5.01556C7.76621 5.02445 7.65465 5.04934 7.65465 5.19378C7.65465 5.22845 7.68621 5.29156 7.75643 5.29201C7.85243 5.32001 7.93065 5.29823 7.99598 5.43245L8.01332 5.57112C8.01332 5.57112 7.92754 5.46134 7.88043 5.44401L7.90932 5.3849C7.86487 5.35912 7.78621 5.38001 7.78621 5.38001C7.78621 5.38001 7.6151 5.30001 7.47776 5.32134L7.4511 5.21023C7.4271 5.27867 7.37332 5.27512 7.36576 5.33956C7.35065 5.29334 7.33065 5.23601 7.31643 5.18978C7.26798 5.25556 7.28221 5.32667 7.26487 5.39512C7.24621 5.41112 7.20798 5.41156 7.19821 5.36756C7.19332 5.31334 7.18665 5.30845 7.18665 5.24401C7.15198 5.3049 7.11021 5.33467 7.09643 5.43912L7.05954 5.32356C7.06087 5.46001 6.94354 5.54134 6.83243 5.63778C6.80087 5.69556 6.83732 5.69601 6.83998 5.72578L6.89865 5.75512L7.00398 5.74756C7.02132 5.76934 7.0071 5.77112 7.05287 5.7849C7.17554 5.81912 7.32843 5.67201 7.44843 5.90356C7.39332 5.94978 7.33776 6.05778 7.35554 6.07823C7.37776 6.07823 7.3111 6.10934 7.40087 6.0809C7.30754 6.17156 7.24443 6.29112 7.24443 6.29823C7.23376 6.32401 7.28176 6.29467 7.27198 6.34134L7.29421 6.33867C7.08132 6.5689 7.2871 6.81645 7.26443 6.94934C7.29998 7.00667 7.30443 6.94801 7.34887 6.94223C7.38621 7.10578 7.49376 7.2049 7.55954 7.33423L7.42087 7.33556C7.42398 7.3969 7.47954 7.45512 7.52354 7.5089L7.43065 7.53823C7.37092 7.568 7.31773 7.60941 7.27421 7.66001C7.24354 7.73467 7.42221 7.75245 7.50843 7.76578L7.50532 7.85601C7.63998 7.8689 7.79554 7.8289 7.79554 7.82134L7.82932 7.79512L7.90532 7.8369C7.93065 7.8369 7.97021 7.73556 7.95198 7.65778C8.00087 7.71601 8.0471 7.80978 8.09598 7.86845L8.14176 7.86223C8.18354 7.92845 8.24087 7.99423 8.28265 8.06045L8.32932 8.07823C8.35643 8.0689 8.37954 8.06578 8.39421 8.01245L8.41554 8.04978L8.48932 7.99912L8.54087 7.9889L8.57954 8.05201C8.60221 8.04356 8.62443 7.99423 8.62576 7.94178C8.64887 7.98756 8.6551 7.98401 8.67198 7.99601L8.70621 7.92401L8.89065 8.09645L9.03021 8.10445C9.07999 8.13823 9.21643 8.15956 9.23954 8.1049C9.35154 8.1529 9.48354 8.09867 9.47687 8.04534C9.57998 8.08623 9.73865 8.05867 9.73865 8.05201C9.75776 8.04978 9.80665 8.00178 9.76043 7.96578C9.41954 7.72845 8.91421 7.33556 8.7191 7.2409C8.7191 7.17067 8.66621 6.91778 8.60932 6.84845L8.65554 6.77112C8.78843 6.89512 8.83643 6.88312 8.9071 6.90267C8.98265 6.96267 9.00887 7.05378 9.08443 7.1369L9.15198 7.14934C9.0969 7.00473 9.01315 6.87276 8.90576 6.76134C8.97865 6.79778 9.09954 6.89512 9.18043 6.96578C9.23376 7.05512 9.24932 7.12623 9.29821 7.23823C9.33376 7.2609 9.37021 7.34401 9.36532 7.27512C9.35687 7.14578 9.26576 6.9409 9.26576 6.92623C9.41065 7.0409 9.40887 7.21956 9.45287 7.32845C9.48976 7.38356 9.50843 7.45734 9.52443 7.44001L9.48176 7.10401L9.45687 6.9809C9.56398 7.04267 9.60221 7.27823 9.65243 7.5609C9.65243 7.60578 9.67065 7.65512 9.66798 7.68401C9.6911 7.71245 9.71732 7.79112 9.71687 7.74445C9.71687 7.74445 9.71687 7.2849 9.68532 7.17956C9.67732 7.12312 9.69865 7.03156 9.69865 7.03156C9.73776 7.22223 9.77954 7.4289 9.8191 7.61912V7.75912L9.87776 7.81823C9.88887 7.70267 9.90221 7.58801 9.91376 7.47334L9.86976 7.06223V6.9449C9.86887 6.90356 9.90754 6.91112 9.93198 6.95823C9.93776 7.05912 9.93776 7.13778 9.94176 7.23823C9.9591 7.3529 9.9711 7.4369 9.97954 7.58312C9.98443 7.70134 9.98976 7.9849 10.0147 7.98001V7.98001Z" fill="#C1694F"/>
</g>
</svg>
