<svg width="12" height="12" viewBox="0 0 12 12" fill="none" xmlns="http://www.w3.org/2000/svg">
<path d="M2.21325 10.2004L1.37062 0.75H10.6294L9.78562 10.1989L5.99437 11.25L2.21325 10.2004Z" fill="#E44F26"/>
<path d="M6 10.4468L9.06375 9.59739L9.7845 1.52289H6V10.4468Z" fill="#F1662A"/>
<path d="M6 5.02761H4.46625L4.3605 3.84074H6V2.68161H3.09375L3.1215 2.99286L3.40613 6.18674H6V5.02761V5.02761ZM6 8.03774L5.99475 8.03924L4.704 7.69086L4.6215 6.76649H3.45787L3.62025 8.58599L5.99475 9.24524L6 9.24374V8.03774Z" fill="#EBEBEB"/>
<path d="M5.99588 5.02761V6.18674H7.42313L7.28888 7.69011L5.99588 8.03886V9.24486L8.37225 8.58599L8.3895 8.39024L8.66175 5.33886L8.69025 5.02761H5.99588V5.02761ZM5.99588 2.68161V3.84074H8.79563L8.81888 3.58049L8.87175 2.99286L8.8995 2.68161H5.99588V2.68161Z" fill="white"/>
</svg>
