<svg width="12" height="12" viewBox="0 0 12 12" fill="none" xmlns="http://www.w3.org/2000/svg">
<path d="M11.6316 2.71C11.636 2.72596 11.6382 2.74241 11.6382 2.75896V5.33023C11.6382 5.39741 11.6023 5.45946 11.544 5.49287L9.38591 6.73546V9.19819C9.38592 9.23114 9.37726 9.26352 9.36082 9.29207C9.34436 9.32062 9.3207 9.34435 9.29218 9.36087L4.78727 11.9542C4.77696 11.96 4.76573 11.9637 4.75446 11.9678C4.75023 11.9691 4.74627 11.9717 4.74182 11.9729C4.71033 11.9812 4.67722 11.9812 4.64573 11.9729C4.64055 11.9715 4.63587 11.9687 4.63096 11.9668C4.62064 11.963 4.60987 11.9598 4.60005 11.9542L0.0960469 9.36082C0.0674261 9.34439 0.0436442 9.32071 0.0271005 9.29215C0.0105569 9.2636 0.00183667 9.23119 0.00181961 9.19819L0.00181961 1.48437C0.00181961 1.46746 0.00418325 1.45105 0.00836506 1.43514C0.00977416 1.42973 0.0130469 1.42482 0.014956 1.41941C0.018456 1.4096 0.0217742 1.3995 0.0269105 1.39037C0.0304105 1.38428 0.0355469 1.37937 0.0397742 1.37373C0.0451832 1.36623 0.0500923 1.3585 0.0564105 1.35191C0.0618196 1.34655 0.0688651 1.34255 0.074956 1.33787C0.0817742 1.33223 0.0878196 1.32614 0.0955469 1.32169H0.0957742L2.34787 0.0250501C2.37638 0.00863794 2.40871 0 2.44162 0C2.47452 0 2.50685 0.00863794 2.53537 0.0250501L4.78746 1.32169H4.78791C4.79541 1.32641 4.80177 1.33223 4.80855 1.33764C4.81464 1.34232 4.82146 1.34655 4.82682 1.35173C4.83341 1.3585 4.83809 1.36628 4.84368 1.37373C4.84768 1.37937 4.85309 1.38428 4.85637 1.39037C4.86173 1.39973 4.86477 1.4096 4.86855 1.41946C4.87041 1.42482 4.87368 1.42973 4.87509 1.43537C4.87941 1.45132 4.88164 1.46782 4.88168 1.48437V6.30228L6.75832 5.22169V2.75873C6.75832 2.74237 6.76068 2.72569 6.76491 2.71C6.76655 2.70437 6.76959 2.69946 6.77146 2.6941C6.77523 2.68423 6.7785 2.6741 6.78364 2.665C6.78714 2.65891 6.79227 2.654 6.79632 2.64837C6.80191 2.64087 6.80659 2.63314 6.81314 2.62655C6.81859 2.62119 6.82537 2.61719 6.83146 2.6125C6.8385 2.60687 6.84459 2.60078 6.85209 2.59632H6.85232L9.10464 1.29969C9.13315 1.28325 9.16548 1.2746 9.19839 1.2746C9.2313 1.2746 9.26363 1.28325 9.29214 1.29969L11.5442 2.59632C11.5522 2.601 11.5583 2.60687 11.5653 2.61223C11.5711 2.61696 11.578 2.62119 11.5834 2.62632C11.5899 2.63314 11.5946 2.64087 11.6002 2.64837C11.6045 2.654 11.6096 2.65891 11.6129 2.665C11.6183 2.6741 11.6213 2.68423 11.625 2.6941C11.6272 2.69946 11.6302 2.70437 11.6316 2.71ZM11.2628 5.22173V3.08355L10.4746 3.53723L9.38587 4.16414V6.30232L11.263 5.22173H11.2628ZM9.01068 9.08969V6.95L7.93968 7.56169L4.88146 9.30714V11.4669L9.01068 9.0896V9.08969ZM0.377229 1.80891V9.08969L4.506 11.4667V9.30737L2.34909 8.08664L2.34841 8.08619L2.3475 8.08573C2.34023 8.0815 2.33409 8.07541 2.32732 8.07028C2.32141 8.06555 2.31464 8.06182 2.3095 8.05664L2.30905 8.05596C2.30296 8.0501 2.29873 8.04282 2.29359 8.03628C2.28887 8.02991 2.28327 8.02455 2.2795 8.01801L2.27927 8.01728C2.27505 8.01028 2.27246 8.00182 2.26941 7.99387C2.26637 7.98682 2.26241 7.98023 2.2605 7.97278V7.97255C2.25818 7.96364 2.25773 7.95423 2.25677 7.9451C2.25587 7.9381 2.25396 7.93105 2.25396 7.92401V2.88955L1.16537 2.26237L0.377229 1.80919V1.80891ZM2.44187 0.404232L0.565411 1.48437L2.44141 2.56446L4.31759 1.4841L2.44141 0.404232H2.44187ZM3.41768 7.14505L4.50623 6.51841V1.80891L3.71818 2.26264L2.62932 2.8895V7.59896L3.41768 7.14505ZM9.19837 1.67887L7.32218 2.75896L9.19837 3.8391L11.0743 2.75873L9.19841 1.67887H9.19837ZM9.01064 4.16414L7.92186 3.53723L7.13377 3.08355V5.22173L8.22232 5.84841L9.01068 6.30232V4.16414H9.01064ZM4.6935 8.9826L7.44546 7.4115L8.82109 6.62641L6.94627 5.547L4.78768 6.78973L2.82032 7.92237L4.6935 8.9826Z" fill="#FF2D20"/>
</svg>
