<svg width="32" height="24" viewBox="0 0 32 24" fill="none" xmlns="http://www.w3.org/2000/svg">
<path d="M27.5352 13.8143C26.4219 13.82 25.4543 14.0881 24.6442 14.4845C24.3468 13.8958 24.0496 13.3713 23.9972 12.9865C23.9388 12.5378 23.8689 12.2638 23.9388 11.7275C24.0088 11.1913 24.3236 10.4276 24.3177 10.3694C24.3119 10.3111 24.2477 10.0371 23.6066 10.0314C22.9654 10.0255 22.4117 10.1538 22.3476 10.3228C22.2834 10.4918 22.1611 10.8765 22.0794 11.2728C21.9687 11.8558 20.7972 13.9365 20.1269 15.0265C19.9112 14.6011 19.7247 14.228 19.6838 13.9308C19.6256 13.482 19.5556 13.208 19.6256 12.6718C19.6956 12.1355 20.0103 11.372 20.0044 11.3136C19.9986 11.2554 19.9344 10.9814 19.2933 10.9756C18.6521 10.9698 18.0983 11.098 18.0343 11.267C17.9702 11.4361 17.9002 11.8324 17.7662 12.2171C17.6321 12.6019 16.0758 16.0759 15.6678 16.9734C15.5029 17.3366 15.33 17.6962 15.1491 18.0518C15.1491 18.0518 15.1432 18.0693 15.1257 18.0984C15.0688 18.2099 15.0106 18.3206 14.9509 18.4306V18.4364C14.8634 18.5939 14.7702 18.7395 14.7236 18.7395C14.6886 18.7395 14.6244 18.3199 14.7352 17.7486C14.9683 16.5421 15.5221 14.6653 15.5163 14.6011C15.5163 14.5661 15.6212 14.2398 15.1549 14.0706C14.7002 13.9016 14.5371 14.1814 14.4962 14.1814C14.4554 14.1814 14.4262 14.2805 14.4262 14.2805C14.4262 14.2805 14.9334 12.1705 13.4587 12.1705C12.5378 12.1705 11.2671 13.1789 10.6376 14.0881C9.92195 14.4776 9.20695 14.8681 8.49256 15.2598C8.14881 15.4521 7.79318 15.6445 7.46093 15.8251C7.43756 15.8019 7.41431 15.7726 7.39093 15.7494C5.60731 13.8434 2.30831 12.4969 2.44818 9.93813C2.50068 9.0055 2.82118 6.55738 8.78406 3.58475C13.6918 1.16575 17.5972 1.836 18.2733 3.32238C19.2408 5.44413 16.1808 9.38438 11.1097 9.9555C9.17456 10.1713 8.16031 9.42513 7.90393 9.14538C7.63581 8.85388 7.59493 8.83638 7.49581 8.89475C7.33268 8.98225 7.43756 9.2445 7.49581 9.396C7.64743 9.79225 8.27106 10.4918 9.32606 10.8358C10.2587 11.1388 12.5261 11.3079 15.2714 10.247C18.3432 9.05788 20.7447 5.753 20.0394 2.98438C19.3341 0.174875 14.6711 -0.751874 10.2587 0.816001C7.63581 1.74875 4.79131 3.2175 2.74543 5.12938C0.314807 7.4025 -0.069943 9.3785 0.087432 10.2063C0.652932 13.1439 4.70393 15.0557 6.32431 16.4721C6.24268 16.5187 6.16681 16.5596 6.10281 16.5946C5.29256 16.9967 2.20331 18.6112 1.43393 20.3191C0.559682 22.2542 1.57393 23.6416 2.24418 23.828C4.32506 24.4051 6.46418 23.3676 7.61243 21.6539C8.76068 19.9403 8.62081 17.7136 8.09043 16.6936C8.08456 16.682 8.07881 16.6702 8.06706 16.6586C8.27693 16.5362 8.49256 16.408 8.70243 16.2856C9.08817 16.0576 9.4788 15.838 9.87406 15.6269C9.67581 16.169 9.53006 16.816 9.46018 17.7486C9.37268 18.8445 9.82143 20.2666 10.4102 20.8261C10.6726 21.0711 10.9814 21.0769 11.1797 21.0769C11.8674 21.0769 12.1764 20.5056 12.5203 19.8295C12.9399 19.0019 13.3188 18.0401 13.3188 18.0401C13.3188 18.0401 12.8467 20.6397 14.1291 20.6397C14.5953 20.6397 15.0674 20.0335 15.2773 19.7246V19.7304C15.2773 19.7304 15.2889 19.7129 15.3123 19.6721C15.3589 19.5964 15.3881 19.5496 15.3881 19.5496V19.5381C15.5746 19.2116 15.9943 18.4714 16.6179 17.2415C17.4223 15.6561 18.1976 13.6744 18.1976 13.6744C18.1976 13.6744 18.2676 14.1581 18.5064 14.9625C18.6464 15.4346 18.9377 15.9534 19.1709 16.4546C18.9844 16.717 18.8678 16.8626 18.8678 16.8626L18.8737 16.8685C18.7221 17.0666 18.5589 17.2823 18.3782 17.4923C17.7428 18.2499 16.9852 19.1185 16.8802 19.369C16.7577 19.6663 16.7869 19.882 17.0202 20.0569C17.1892 20.1851 17.4922 20.2025 17.8012 20.1851C18.3724 20.1443 18.7746 20.0044 18.9727 19.917C19.2817 19.8062 19.6431 19.6371 19.9811 19.3865C20.6048 18.926 20.9836 18.2674 20.9487 17.399C20.9312 16.921 20.7738 16.443 20.5814 15.9941C20.6398 15.9126 20.6922 15.831 20.7506 15.7494C21.7356 14.3096 22.4992 12.73 22.4992 12.73C22.4992 12.73 22.5692 13.2138 22.8081 14.0183C22.9247 14.4263 23.1637 14.8693 23.3734 15.3005C22.4467 16.0525 21.8754 16.9267 21.6714 17.498C21.3043 18.5589 21.5898 19.0367 22.1319 19.1475C22.3767 19.2 22.7264 19.0834 22.9829 18.9726C23.3093 18.8678 23.6941 18.6871 24.0613 18.4189C24.6851 17.9585 25.2853 17.3173 25.2503 16.4489C25.2328 16.0525 25.1279 15.6619 24.9822 15.283C25.7691 14.9568 26.7833 14.776 28.0772 14.9275C30.8518 15.2539 31.3997 16.985 31.2947 17.7138C31.1898 18.4423 30.6069 18.8386 30.4147 18.961C30.2222 19.0835 30.1582 19.1242 30.1757 19.2116C30.1989 19.3399 30.2922 19.3341 30.4554 19.3107C30.6828 19.27 31.9127 18.722 31.9651 17.3814C32.0526 15.6677 30.4204 13.7968 27.5352 13.8143ZM6.13193 21.0303C5.21093 22.0328 3.92868 22.4116 3.37493 22.0911C2.78043 21.7471 3.01356 20.2666 4.14431 19.2059C4.83206 18.5589 5.71806 17.9584 6.30681 17.5912C6.44081 17.5096 6.63906 17.3931 6.87806 17.2474C6.91881 17.224 6.94218 17.2124 6.94218 17.2124L7.08206 17.1249C7.49581 18.6404 7.09956 19.9753 6.13193 21.0303ZM12.8351 16.4721C12.5144 17.2532 11.8442 19.2525 11.4362 19.1418C11.0864 19.0485 10.8707 17.533 11.3662 16.035C11.6168 15.283 12.1472 14.3854 12.4562 14.0358C12.9574 13.4761 13.5112 13.2895 13.6452 13.517C13.8143 13.8143 13.0332 15.9825 12.8351 16.4721ZM18.3666 19.1184C18.2324 19.1884 18.1043 19.235 18.0459 19.2C18.0052 19.1766 18.1043 19.0834 18.1043 19.0834C18.1043 19.0834 18.7979 18.3374 19.0718 17.9993C19.2293 17.8011 19.4157 17.568 19.6139 17.3056V17.3814C19.6139 18.2732 18.7512 18.8736 18.3664 19.1184H18.3666ZM22.6332 18.145C22.5341 18.075 22.5516 17.8419 22.8838 17.1133C23.0121 16.8276 23.3151 16.3498 23.8339 15.8893C23.8922 16.0758 23.9331 16.2565 23.9272 16.4255C23.9213 17.5505 23.1171 17.9701 22.6332 18.145Z" fill="#CD6799"/>
</svg>
