<svg width="33" height="32" viewBox="0 0 33 32" fill="none" xmlns="http://www.w3.org/2000/svg">
<g id="bxl:docker">
<path id="Vector" d="M27.8633 13.0933C27.4879 13.0913 27.1131 13.1225 26.7433 13.1867C26.6467 12.6028 26.4267 12.0463 26.0979 11.5542C25.7691 11.0622 25.3391 10.6459 24.8366 10.3333L24.4633 10.12L24.2099 10.48C23.8918 10.9648 23.6616 11.5019 23.5299 12.0667C23.3983 12.5641 23.3695 13.0831 23.4451 13.592C23.5208 14.1009 23.6993 14.5891 23.9699 15.0267C23.3593 15.2988 22.7041 15.457 22.0366 15.4933H4.47659C4.2561 15.4933 4.04444 15.58 3.88729 15.7346C3.73013 15.8893 3.64009 16.0995 3.63659 16.32C3.62018 17.8609 3.88216 19.3922 4.40992 20.84C4.88369 22.2625 5.82316 23.4839 7.07659 24.3067C8.89845 25.2314 10.929 25.6678 12.9699 25.5733C14.0506 25.592 15.1306 25.5117 16.1966 25.3333C17.6907 25.0658 19.1288 24.5474 20.4499 23.8C21.5407 23.1386 22.5177 22.3057 23.3433 21.3333C24.5745 19.8849 25.5363 18.2276 26.1833 16.44H26.4366C26.9817 16.4602 27.5255 16.3715 28.036 16.1792C28.5465 15.9869 29.0135 15.6948 29.4099 15.32C29.756 14.9974 30.0249 14.6009 30.1966 14.16L30.3033 13.8667L30.0366 13.6533C29.3907 13.239 28.629 13.0427 27.8633 13.0933V13.0933Z" fill="#2496ED"/>
<path id="Vector_2" d="M8.45001 12.4667H6.10335C6.049 12.4666 5.99667 12.4872 5.95702 12.5244C5.91738 12.5615 5.89341 12.6124 5.89001 12.6667V14.7733C5.89341 14.8276 5.91738 14.8785 5.95702 14.9156C5.99667 14.9528 6.049 14.9734 6.10335 14.9733H8.45001C8.50436 14.9734 8.55669 14.9528 8.59634 14.9156C8.63598 14.8785 8.65995 14.8276 8.66335 14.7733V12.6667C8.65995 12.6124 8.63598 12.5615 8.59634 12.5244C8.55669 12.4872 8.50436 12.4666 8.45001 12.4667V12.4667ZM11.7033 12.4667H9.34335C9.289 12.4666 9.23667 12.4872 9.19702 12.5244C9.15738 12.5615 9.13341 12.6124 9.13001 12.6667V14.7733C9.13341 14.8276 9.15738 14.8785 9.19702 14.9156C9.23667 14.9528 9.289 14.9734 9.34335 14.9733H11.7033C11.7564 14.9733 11.8073 14.9523 11.8448 14.9148C11.8823 14.8773 11.9033 14.8264 11.9033 14.7733V12.6667C11.9033 12.6136 11.8823 12.5628 11.8448 12.5253C11.8073 12.4877 11.7564 12.4667 11.7033 12.4667V12.4667ZM14.9967 12.4667H12.6367C12.5836 12.4667 12.5328 12.4877 12.4953 12.5253C12.4578 12.5628 12.4367 12.6136 12.4367 12.6667V14.7733C12.4367 14.8264 12.4578 14.8773 12.4953 14.9148C12.5328 14.9523 12.5836 14.9733 12.6367 14.9733H14.9967C15.0497 14.9733 15.1006 14.9523 15.1381 14.9148C15.1756 14.8773 15.1967 14.8264 15.1967 14.7733V12.6667C15.1967 12.6136 15.1756 12.5628 15.1381 12.5253C15.1006 12.4877 15.0497 12.4667 14.9967 12.4667V12.4667ZM15.89 12.4667C15.8597 12.4583 15.8279 12.4571 15.797 12.4633C15.7662 12.4695 15.7373 12.4829 15.7126 12.5024C15.6879 12.5219 15.6682 12.5469 15.655 12.5755C15.6418 12.604 15.6355 12.6353 15.6367 12.6667V14.7733C15.6367 14.7996 15.6419 14.8256 15.6519 14.8499C15.662 14.8741 15.6767 14.8962 15.6953 14.9148C15.7138 14.9333 15.7359 14.9481 15.7601 14.9581C15.7844 14.9682 15.8104 14.9733 15.8367 14.9733H18.3033C18.3564 14.9733 18.4073 14.9523 18.4448 14.9148C18.4823 14.8773 18.5033 14.8264 18.5033 14.7733V12.6667C18.5033 12.6136 18.4823 12.5628 18.4448 12.5253C18.4073 12.4877 18.3564 12.4667 18.3033 12.4667H15.89ZM9.34335 9.45334H11.6367C11.6933 9.45334 11.7475 9.47581 11.7875 9.51582C11.8275 9.55583 11.85 9.61009 11.85 9.66667V11.7467C11.856 11.7778 11.8549 11.8099 11.8469 11.8406C11.8389 11.8713 11.8241 11.8999 11.8037 11.9241C11.7832 11.9484 11.7576 11.9678 11.7287 11.9809C11.6999 11.9941 11.6684 12.0006 11.6367 12H9.34335C9.2903 12 9.23943 11.9789 9.20193 11.9414C9.16442 11.9039 9.14335 11.853 9.14335 11.8V9.65334C9.14335 9.62707 9.14852 9.60107 9.15857 9.5768C9.16862 9.55254 9.18335 9.53049 9.20193 9.51192C9.2205 9.49335 9.24255 9.47861 9.26681 9.46856C9.29108 9.45851 9.31708 9.45334 9.34335 9.45334V9.45334ZM12.6367 9.45334H14.9967C15.0229 9.45334 15.049 9.45851 15.0732 9.46856C15.0975 9.47861 15.1195 9.49335 15.1381 9.51192C15.1567 9.53049 15.1714 9.55254 15.1815 9.5768C15.1915 9.60107 15.1967 9.62707 15.1967 9.65334V11.7467C15.1967 11.8033 15.1742 11.8575 15.1342 11.8975C15.0942 11.9375 15.0399 11.96 14.9833 11.96H12.6367C12.5836 11.96 12.5328 11.9389 12.4953 11.9014C12.4578 11.8639 12.4367 11.813 12.4367 11.76V9.65334C12.4367 9.62707 12.4419 9.60107 12.4519 9.5768C12.462 9.55254 12.4767 9.53049 12.4953 9.51192C12.5138 9.49335 12.5359 9.47861 12.5601 9.46856C12.5844 9.45851 12.6104 9.45334 12.6367 9.45334V9.45334ZM15.89 9.45334H18.3033C18.3296 9.45334 18.3556 9.45851 18.3799 9.46856C18.4042 9.47861 18.4262 9.49335 18.4448 9.51192C18.4633 9.53049 18.4781 9.55254 18.4881 9.5768C18.4982 9.60107 18.5033 9.62707 18.5033 9.65334V11.7467C18.5118 11.777 18.5129 11.8088 18.5067 11.8396C18.5005 11.8705 18.4871 11.8994 18.4676 11.9241C18.4481 11.9487 18.4231 11.9685 18.3946 11.9817C18.366 11.9949 18.3348 12.0011 18.3033 12H15.89C15.8552 12.0075 15.819 12.0061 15.7849 11.996C15.7507 11.9859 15.7196 11.9675 15.6944 11.9423C15.6692 11.9171 15.6507 11.886 15.6407 11.8518C15.6306 11.8177 15.6292 11.7815 15.6367 11.7467V9.65334C15.6355 9.62192 15.6418 9.59067 15.655 9.56213C15.6682 9.53359 15.6879 9.50857 15.7126 9.48908C15.7373 9.4696 15.7662 9.45621 15.797 9.45C15.8279 9.44379 15.8597 9.44493 15.89 9.45334V9.45334Z" fill="#2496ED"/>
<path id="Vector_3" d="M18.2499 6.42667H15.8899C15.7795 6.42667 15.6899 6.51621 15.6899 6.62667V8.73333C15.6899 8.84379 15.7795 8.93333 15.8899 8.93333H18.2499C18.3604 8.93333 18.4499 8.84379 18.4499 8.73333V6.62667C18.4499 6.51621 18.3604 6.42667 18.2499 6.42667Z" fill="#2496ED"/>
<path id="Vector_4" d="M19.17 12.4667C19.1169 12.4667 19.0661 12.4877 19.0285 12.5253C18.991 12.5628 18.97 12.6136 18.97 12.6667V14.7733C18.97 14.8264 18.991 14.8773 19.0285 14.9148C19.0661 14.9523 19.1169 14.9733 19.17 14.9733H21.53C21.5562 14.9733 21.5822 14.9682 21.6065 14.9581C21.6308 14.9481 21.6528 14.9333 21.6714 14.9148C21.69 14.8962 21.7047 14.8741 21.7147 14.8499C21.7248 14.8256 21.73 14.7996 21.73 14.7733V12.6667C21.73 12.6404 21.7248 12.6144 21.7147 12.5901C21.7047 12.5659 21.69 12.5438 21.6714 12.5253C21.6528 12.5067 21.6308 12.4919 21.6065 12.4819C21.5822 12.4718 21.5562 12.4667 21.53 12.4667H19.17Z" fill="#2496ED"/>
</g>
</svg>
