<svg width="102" height="124" viewBox="0 0 102 124" fill="none" xmlns="http://www.w3.org/2000/svg">
<path d="M47.9689 82.3273C49.3094 86.3103 49.1239 93.2648 49.6944 98.2838C50.2789 103.422 50.7689 108.49 51.2869 113.855C53.7369 109.438 56.2149 105.035 58.6369 100.601C64.0315 90.6958 69.4087 80.7791 74.7684 70.8508C76.0914 68.4183 77.3934 65.9718 78.8074 63.5918C79.6369 62.1918 79.3814 60.9493 78.6814 59.6683C72.5587 48.4683 66.4349 37.2683 60.3099 26.0683C58.5599 22.8553 56.8869 19.6003 55.1194 16.3978C54.5244 15.3233 54.1919 14.0213 53.0019 13.3283C52.8304 13.5278 52.6029 13.6783 52.6029 13.8113C52.5434 21.3433 51.9554 28.9488 52.1199 36.6348C52.2284 37.7268 52.1199 38.6088 51.1574 39.2178C48.6479 40.7963 46.2749 42.6828 43.5904 43.8623C36.1249 47.1453 29.3314 51.5203 22.5589 55.9758C21.8187 56.4628 20.9837 56.7873 20.1089 56.9278C17.9774 57.2253 16.1679 58.2123 14.3759 59.2728C8.70586 62.6258 8.46436 64.0223 12.5349 69.1358C13.4414 70.2733 14.6349 70.1858 15.7899 70.0318C29.0234 68.4533 42.0224 70.5603 55.0319 72.4818C55.4343 72.5251 55.8073 72.7129 56.0819 73.0103C51.0069 73.3603 46.5969 76.1603 41.1964 75.7368C33.3249 75.0963 25.1734 74.4838 17.4944 75.8488C10.3509 77.1228 8.34886 72.6988 5.34936 68.6493C3.90036 66.6998 1.92636 65.6358 0.932361 64.1588C0.540361 63.5743 -0.0791419 62.5803 0.00835813 62.0308C0.103014 61.4069 0.328816 60.8101 0.670878 60.2798C1.01294 59.7496 1.4635 59.2978 1.99286 58.9543C3.34036 58.0968 4.44286 56.9313 5.54536 55.9478C13.1789 49.2208 20.0389 41.5978 27.7844 35.0913C32.2539 31.3288 34.5149 27.1953 35.9744 22.0188C36.6184 19.7438 37.1539 17.5073 37.8784 15.1763C38.4174 13.4263 39.5759 10.9763 40.3284 12.0648C41.3784 13.5978 41.6969 13.4648 42.2044 14.3153C44.4164 18.0078 46.3659 20.9023 48.2839 24.8888C48.2839 19.3868 48.2839 13.886 48.2839 8.38628C48.2839 7.49728 48.2839 6.60478 48.3224 5.71228C48.5219 0.434284 48.9629 0.00378409 54.1989 0.000284093C57.4679 0.000284093 60.7369 0.0212841 63.9989 0.000284093C67.1489 -0.0207159 69.1964 1.12028 70.7784 4.16528C75.8464 13.9023 81.3239 23.4153 86.6019 33.0543C91.2685 41.5523 95.8955 50.069 100.483 58.6043C101.03 59.5583 101.318 60.6388 101.318 61.7385C101.318 62.8383 101.03 63.9188 100.483 64.8728C94.7242 75.4801 88.9597 86.0793 83.1894 96.6703C78.9614 104.451 74.7054 112.221 70.5509 120.043C69.5814 121.867 67.6004 123.571 65.5389 123.599C59.9389 123.673 54.1254 123.599 48.8089 123.554C47.2269 123.767 46.7579 123.288 46.7089 121.216C46.6529 118.57 46.7089 116.127 46.6179 113.575C46.2854 103.681 46.3064 93.7898 47.3459 83.9198C47.3186 83.6242 47.3608 83.3263 47.4689 83.0498C47.5771 82.7733 47.7483 82.5259 47.9689 82.3273ZM61.4299 6.00629C60.3484 6.00629 59.7534 6.00629 59.1584 6.00629C56.0959 6.07629 55.9874 6.21279 57.4084 8.96729C59.1794 12.3938 61.0064 15.7888 62.8544 19.1733C70.013 32.2843 77.1775 45.3918 84.3479 58.4958C84.9218 59.4899 85.2219 60.6184 85.2176 61.7663C85.2133 62.9142 84.9047 64.0405 84.3234 65.0303C78.364 75.9783 72.4035 86.9228 66.4419 97.8638C63.3759 103.513 60.3484 109.186 57.3034 114.846C56.7889 115.808 55.9034 116.767 57.9474 117.121C63.6734 118.118 65.7139 117.159 68.3319 112.039C68.6049 111.507 68.9024 110.989 69.1859 110.471C77.7352 94.8514 86.2915 79.2333 94.8549 63.6163C95.6319 62.1988 95.4394 60.9738 94.7359 59.6928C92.1202 54.9235 89.4987 50.153 86.8714 45.3813C80.4349 33.6773 73.8619 22.0433 67.6599 10.2133C66.0709 7.18578 64.6394 5.83479 61.4299 6.00629ZM14.7749 52.2553C15.3594 52.6053 18.1384 51.4573 18.5129 51.2053C23.3332 48.1309 28.3754 45.4191 33.5979 43.0923C37.1889 41.4963 40.5664 39.4103 44.0279 37.5203C44.6089 37.2053 45.4104 36.9218 45.1934 36.0328C44.9939 35.2208 44.2274 35.1473 43.5274 35.0773C43.1319 35.0423 42.7364 35.0388 42.3444 34.9898C41.7494 34.9198 41.0599 34.8428 40.9829 34.1183C40.9059 33.3938 41.5044 33.1068 42.0644 32.8688C43.5292 32.2526 45.1224 32.0039 46.7054 32.1443C47.1954 32.1863 47.7554 32.2353 48.0039 31.6963C48.2524 31.1573 47.7379 30.8808 47.3809 30.5308C45.0289 28.2593 42.9709 25.7673 41.6409 22.7293C41.2909 21.9488 40.9899 20.7763 39.9889 20.8953C38.9879 21.0143 39.0124 22.2568 38.8654 23.0828C38.3474 25.9843 38.0394 29.0328 35.9744 31.2973C31.4629 36.2498 26.7974 41.0588 22.1809 45.9168C20.3259 47.4638 16.4969 50.2393 14.7749 52.2553Z" fill="#E5E5D5"/>
<path d="M51.3849 48.3283C51.2037 49.2969 50.97 50.255 50.6849 51.1983C50.1949 52.5983 49.9359 55.0203 47.9794 52.0803C47.4194 51.2368 46.6564 51.3978 45.8794 51.7478C45.44 51.9757 44.9778 52.1564 44.5004 52.2868C43.1529 52.5633 41.3504 53.8898 40.5909 52.1048C39.9574 50.5858 42.1484 50.4983 43.0899 49.7668C44.9134 48.3668 47.0834 47.6668 49.1099 46.6833C51.2449 45.6403 51.5564 46.4418 51.3849 48.3283Z" fill="#E5E5D5"/>
</svg>
