<svg width="12" height="12" viewBox="0 0 12 12" fill="none" xmlns="http://www.w3.org/2000/svg">
<path d="M2 3V8H4.5V6C4.5 5.73478 4.60536 5.48043 4.79289 5.29289C4.98043 5.10536 5.23478 5 5.5 5H8C8.26522 5 8.51957 5.10536 8.70711 5.29289C8.89464 5.48043 9 5.73478 9 6V8H10V3H2ZM0 10V9H2C1.73478 9 1.48043 8.89464 1.29289 8.70711C1.10536 8.51957 1 8.26522 1 8V3C1 2.73478 1.10536 2.48043 1.29289 2.29289C1.48043 2.10536 1.73478 2 2 2H10C10.2652 2 10.5196 2.10536 10.7071 2.29289C10.8946 2.48043 11 2.73478 11 3V8C11 8.26522 10.8946 8.51957 10.7071 8.70711C10.5196 8.89464 10.2652 9 10 9H12V10H9C9 10.2652 8.89464 10.5196 8.70711 10.7071C8.51957 10.8946 8.26522 11 8 11H5.5C5.23478 11 4.98043 10.8946 4.79289 10.7071C4.60536 10.5196 4.5 10.2652 4.5 10H0ZM5.75 10C5.6837 10 5.62011 10.0263 5.57322 10.0732C5.52634 10.1201 5.5 10.1837 5.5 10.25C5.5 10.3163 5.52634 10.3799 5.57322 10.4268C5.62011 10.4737 5.6837 10.5 5.75 10.5C5.8163 10.5 5.87989 10.4737 5.92678 10.4268C5.97366 10.3799 6 10.3163 6 10.25C6 10.1837 5.97366 10.1201 5.92678 10.0732C5.87989 10.0263 5.8163 10 5.75 10ZM7.75 10C7.6837 10 7.62011 10.0263 7.57322 10.0732C7.52634 10.1201 7.5 10.1837 7.5 10.25C7.5 10.3163 7.52634 10.3799 7.57322 10.4268C7.62011 10.4737 7.6837 10.5 7.75 10.5C7.8163 10.5 7.87989 10.4737 7.92678 10.4268C7.97366 10.3799 8 10.3163 8 10.25C8 10.1837 7.97366 10.1201 7.92678 10.0732C7.87989 10.0263 7.8163 10 7.75 10ZM6.5 10V10.5H7V10H6.5ZM5.5 6V9.5H8V6H5.5Z" fill="#24374F"/>
</svg>
