<svg width="32" height="19" viewBox="0 0 32 19" fill="none" xmlns="http://www.w3.org/2000/svg">
<path d="M7.55 4.94792H13.575V5.41797H8.1V8.98047H13.25V9.45052H8.1V13.3594H13.65V13.8294H7.55V4.94792ZM14.125 4.94792H14.775L17.625 8.85677L20.5 4.94792L24.45 0L17.95 9.27734L21.3 13.8294H20.625L17.6 9.67318L14.55 13.8294H13.9L17.275 9.27734L14.125 4.94792ZM21.55 5.41797V4.94792H28.425V5.41797H25.25V13.8294H24.7V5.41797H21.55ZM0 4.94792H0.675L10.225 19L6.275 13.8294L0.575 5.61589L0.55 13.8294H0V4.94792ZM28.375 13.2109C28.5 13.2109 28.575 13.1367 28.575 13.013C28.575 12.8893 28.5 12.8151 28.375 12.8151C28.25 12.8151 28.175 12.8893 28.175 13.013C28.175 13.1367 28.275 13.2109 28.375 13.2109ZM28.925 12.6914C28.925 13.013 29.175 13.2357 29.525 13.2357C29.9 13.2357 30.125 13.013 30.125 12.6172V11.2565H29.825V12.6172C29.825 12.8398 29.725 12.9388 29.525 12.9388C29.35 12.9388 29.225 12.8398 29.225 12.6667H28.925V12.6914ZM30.5 12.6667C30.525 13.013 30.8 13.2357 31.25 13.2357C31.7 13.2357 32 13.013 32 12.6419C32 12.3451 31.825 12.1966 31.45 12.0977L31.225 12.0482C30.975 11.9987 30.875 11.8997 30.875 11.776C30.875 11.6029 31.025 11.4792 31.275 11.4792C31.5 11.4792 31.65 11.5781 31.675 11.776H31.975C31.95 11.4544 31.675 11.2318 31.275 11.2318C30.85 11.2318 30.575 11.4544 30.575 11.8008C30.575 12.0729 30.725 12.2461 31.075 12.3203L31.325 12.3698C31.575 12.4193 31.7 12.5182 31.7 12.6667C31.7 12.8398 31.525 12.9635 31.275 12.9635C31.025 12.9635 30.825 12.8398 30.8 12.6667H30.5Z" fill="black"/>
</svg>
