<svg width="12" height="12" viewBox="0 0 12 12" fill="none" xmlns="http://www.w3.org/2000/svg">
<path d="M5.95688 0.787489C3.29438 0.787489 3.46275 1.93874 3.46275 1.93874V3.13499H5.99475V3.50999H2.45438C2.45438 3.50999 0.75 3.29999 0.75 6.00186C0.75 8.70374 2.25488 8.59386 2.25488 8.59386H3.12375V7.33349C3.12375 7.33349 3.075 5.82861 4.58625 5.82861H7.122C7.122 5.82861 8.5365 5.85111 8.5365 4.45911V2.17499C8.5365 2.17499 8.751 0.78299 5.97075 0.78299L5.95688 0.787489ZM4.55737 1.58886C4.64739 1.58659 4.73606 1.61107 4.81216 1.65919C4.88827 1.70731 4.94839 1.77692 4.98493 1.85922C5.02148 1.94152 5.03279 2.0328 5.01745 2.12153C5.00211 2.21025 4.9608 2.29244 4.89875 2.35769C4.8367 2.42294 4.7567 2.46832 4.66885 2.4881C4.58101 2.50788 4.48927 2.50116 4.40524 2.4688C4.32122 2.43644 4.24867 2.37989 4.19679 2.3063C4.1449 2.23271 4.116 2.14538 4.11375 2.05536V2.04786C4.11375 1.92712 4.16171 1.81133 4.24709 1.72595C4.33247 1.64058 4.44826 1.59261 4.569 1.59261L4.55737 1.58886Z" fill="url(#paint0_linear_47_279)"/>
<path d="M6.03187 11.2163C8.69437 11.2163 8.526 10.0613 8.526 10.0613V8.86876H5.99437V8.49376H9.54562C9.54562 8.49376 11.25 8.68426 11.25 5.99813C11.25 3.31201 9.74512 3.40613 9.74512 3.40613H8.865V4.65001C8.865 4.65001 8.91375 6.15488 7.4025 6.15488H4.86563C4.86563 6.15488 3.45 6.13351 3.45 7.52551V9.82501C3.45 9.82501 3.2355 11.217 6.01575 11.217H6.03075L6.03187 11.2163ZM7.43137 10.4111C7.34136 10.4134 7.25269 10.3889 7.17659 10.3408C7.10048 10.2927 7.04036 10.2231 7.00382 10.1408C6.96727 10.0585 6.95596 9.9672 6.9713 9.87847C6.98664 9.78974 7.02794 9.70756 7.09 9.64231C7.15205 9.57706 7.23205 9.53168 7.3199 9.5119C7.40774 9.49212 7.49948 9.49884 7.58351 9.5312C7.66753 9.56356 7.74008 9.62011 7.79196 9.6937C7.84385 9.76729 7.87275 9.85462 7.875 9.94463V9.95588C7.875 10.0766 7.82704 10.1924 7.74166 10.2778C7.65628 10.3632 7.54049 10.4111 7.41975 10.4111H7.431H7.43137Z" fill="url(#paint1_linear_47_279)"/>
<defs>
<linearGradient id="paint0_linear_47_279" x1="1.78768" y1="1.80858" x2="6.77018" y2="6.77979" gradientUnits="userSpaceOnUse">
<stop stop-color="#387EB8"/>
<stop offset="1" stop-color="#366994"/>
</linearGradient>
<linearGradient id="paint1_linear_47_279" x1="4.73531" y1="5.04697" x2="10.4279" y2="10.0167" gradientUnits="userSpaceOnUse">
<stop stop-color="#FFE052"/>
<stop offset="1" stop-color="#FFC331"/>
</linearGradient>
</defs>
</svg>
