<svg width="14" height="12" viewBox="0 0 14 12" fill="none" xmlns="http://www.w3.org/2000/svg">
<path d="M11.0781 3.88565C10.9347 3.83645 10.7901 3.79088 10.6444 3.74896C10.6688 3.64896 10.6914 3.55017 10.7114 3.45312C11.0397 1.85938 10.8251 0.575437 10.0919 0.1527C9.38905 -0.252563 8.23953 0.170016 7.07858 1.18038C6.96416 1.28014 6.85228 1.38277 6.74305 1.48817C6.66993 1.41808 6.59551 1.34935 6.51984 1.28202C5.30311 0.2017 4.08353 -0.253616 3.35121 0.170332C2.64895 0.576858 2.441 1.78386 2.73658 3.29428C2.76599 3.44387 2.79919 3.59269 2.83616 3.7406C2.66353 3.78965 2.49695 3.84186 2.33753 3.89744C0.911 4.39481 0 5.17423 0 5.9827C0 6.8177 0.978 7.65523 2.46379 8.16307C2.58425 8.20407 2.7057 8.24207 2.82805 8.27702C2.78832 8.43632 2.75304 8.59669 2.72226 8.75796C2.44047 10.2422 2.66053 11.4206 3.36089 11.8246C4.08426 12.2418 5.29837 11.813 6.48053 10.7796C6.57639 10.6956 6.67014 10.6092 6.76168 10.5205C6.87998 10.6346 7.00143 10.7454 7.12589 10.8528C8.27105 11.8382 9.402 12.2361 10.1017 11.831C10.8244 11.4126 11.0593 10.1466 10.7543 8.60639C10.7303 8.48572 10.7034 8.36565 10.6735 8.24628C10.7588 8.22102 10.8425 8.19502 10.9241 8.16796C12.4687 7.65623 13.4737 6.82886 13.4737 5.9827C13.4737 5.17128 12.5333 4.38659 11.0781 3.88565ZM10.7431 7.62165C10.6694 7.64602 10.5938 7.66954 10.5167 7.69244C10.3462 7.1526 10.1161 6.5786 9.83447 5.98549C10.1032 5.40654 10.3245 4.83986 10.4902 4.30354C10.6281 4.34344 10.7618 4.38549 10.8907 4.42986C12.1376 4.85912 12.8981 5.4937 12.8981 5.9827C12.8981 6.50354 12.0767 7.1797 10.7431 7.62165ZM10.1897 8.71817C10.3245 9.39923 10.3437 10.015 10.2544 10.4964C10.1742 10.929 10.0128 11.2174 9.81326 11.3329C9.38868 11.5787 8.48063 11.2592 7.50132 10.4165C7.38554 10.3167 7.27257 10.2136 7.16253 10.1075C7.54221 9.69233 7.92163 9.20965 8.29195 8.67354C8.94332 8.61575 9.55868 8.52123 10.1167 8.39223C10.1436 8.50029 10.1679 8.60896 10.1897 8.71817ZM4.59347 11.2904C4.17863 11.4369 3.84821 11.4411 3.64847 11.326C3.22347 11.0809 3.04679 10.1346 3.28779 8.86533C3.31644 8.71535 3.34924 8.56618 3.38616 8.41802C3.93805 8.54012 4.54895 8.62791 5.20184 8.68086C5.57468 9.20544 5.96505 9.6876 6.35847 10.1098C6.27487 10.1907 6.18928 10.2695 6.10179 10.3462C5.579 10.8032 5.05516 11.1274 4.59347 11.2904ZM2.65 7.61844C1.993 7.39386 1.45042 7.10202 1.07853 6.78354C0.744316 6.49739 0.575632 6.21323 0.575632 5.9827C0.575632 5.49207 1.30705 4.86628 2.527 4.44096C2.67505 4.38938 2.83 4.3407 2.99079 4.29502C3.15942 4.84344 3.38058 5.41686 3.64747 5.9967C3.37711 6.58512 3.15279 7.1677 2.98253 7.7226C2.87085 7.69061 2.75997 7.65588 2.65 7.61844ZM3.30147 3.1837C3.04826 1.88965 3.21642 0.91349 3.63963 0.66849C4.09037 0.407542 5.08711 0.779595 6.13768 1.71244C6.20619 1.7734 6.27359 1.83561 6.33984 1.89902C5.94837 2.31938 5.56158 2.79796 5.19205 3.31944C4.55837 3.37817 3.95179 3.47249 3.39411 3.59886C3.35975 3.46129 3.32886 3.32288 3.30147 3.18375V3.1837ZM9.11342 4.61886C8.9817 4.39133 8.84509 4.16666 8.70368 3.94502C9.13358 3.99938 9.54547 4.07154 9.93226 4.15975C9.81616 4.53196 9.67142 4.92107 9.50105 5.32002C9.37652 5.08374 9.24729 4.84997 9.11342 4.61886ZM6.74332 2.31038C7.00879 2.59802 7.27468 2.91912 7.53621 3.26754C7.00568 3.24249 6.47427 3.24238 5.94374 3.26723C6.20553 2.92202 6.47368 2.60133 6.74332 2.31038ZM4.358 4.62281C4.22581 4.85206 4.09898 5.08437 3.97763 5.31954C3.81005 4.92202 3.66663 4.53112 3.54953 4.15365C3.93395 4.06765 4.34389 3.99733 4.77105 3.94396C4.62807 4.16696 4.49035 4.39329 4.358 4.62275V4.62281ZM4.78332 8.06239C4.342 8.01312 3.92589 7.94644 3.54158 7.86275C3.66053 7.47854 3.80711 7.07933 3.97832 6.67328C4.10015 6.90863 4.2275 7.14108 4.36026 7.37044C4.49679 7.60623 4.63816 7.83717 4.78332 8.06239ZM6.75921 9.69554C6.48637 9.40123 6.21426 9.0756 5.94853 8.72539C6.20653 8.73549 6.46953 8.74065 6.73684 8.74065C7.01147 8.74065 7.28295 8.73449 7.55016 8.7226C7.28779 9.07912 7.02289 9.40523 6.75921 9.69554ZM9.50647 6.65254C9.68658 7.06307 9.83837 7.46017 9.95889 7.83781C9.56826 7.92696 9.14647 7.99875 8.70205 8.05207C8.84446 7.82631 8.98237 7.59774 9.11568 7.36649C9.25123 7.13144 9.38152 6.89339 9.50647 6.65254ZM8.61711 7.07891C8.41301 7.43346 8.19744 7.78127 7.97074 8.12181C7.56008 8.15089 7.14852 8.16534 6.73684 8.16512C6.31753 8.16512 5.90968 8.15207 5.51695 8.12659C5.28433 7.78685 5.06464 7.43842 4.85837 7.08207H4.85842C4.65312 6.7276 4.46135 6.36546 4.28353 5.99644C4.46089 5.62733 4.65208 5.26502 4.85668 4.91028L4.85663 4.91033C5.06116 4.5555 5.27909 4.20857 5.50995 3.87028C5.91063 3.83996 6.32153 3.82417 6.73679 3.82417H6.73684C7.154 3.82417 7.56542 3.84012 7.966 3.87065C8.19453 4.20843 8.41107 4.55417 8.61521 4.90723C8.8205 5.26118 9.01421 5.62173 9.19605 5.98828C9.01608 6.35858 8.82297 6.72236 8.61711 7.07891ZM9.80447 0.651332C10.2556 0.911542 10.4311 1.96086 10.1476 3.33691C10.1295 3.4247 10.1092 3.51412 10.0871 3.60481C9.52805 3.47575 8.92105 3.37981 8.28553 3.32017C7.91532 2.79296 7.53168 2.31365 7.14658 1.8987C7.24751 1.80141 7.35084 1.70665 7.45647 1.61449C8.45121 0.748858 9.38089 0.407069 9.80447 0.651332ZM6.73684 4.77954C7.40132 4.77954 7.94 5.31823 7.94 5.9827C7.94 6.64717 7.40132 7.18586 6.73684 7.18586C6.07237 7.18586 5.53368 6.64717 5.53368 5.9827C5.53368 5.31823 6.07237 4.77954 6.73684 4.77954Z" fill="#00D8FF"/>
</svg>
