<svg width="16" height="16" viewBox="0 0 16 16" fill="none" xmlns="http://www.w3.org/2000/svg">
<path d="M7.09333 0.751329L1.65666 6.188C1.41856 6.42587 1.22968 6.70834 1.10081 7.01925C0.971933 7.33017 0.905602 7.66343 0.905602 8C0.905602 8.33656 0.971933 8.66983 1.10081 8.98074C1.22968 9.29166 1.41856 9.57412 1.65666 9.812L7.09333 15.2487C7.3312 15.4868 7.61367 15.6756 7.92459 15.8045C8.2355 15.9334 8.56876 15.9997 8.90533 15.9997C9.24189 15.9997 9.57516 15.9334 9.88607 15.8045C10.197 15.6756 10.4795 15.4868 10.7173 15.2487L12.5307 13.4367L10.7173 11.6247L8.90533 13.4367L3.46866 8L8.90533 2.56333L12.53 6.188L8.90533 9.812L10.7173 11.6253L14.342 8C14.5802 7.76211 14.7692 7.4796 14.8981 7.16863C15.027 6.85765 15.0934 6.52431 15.0934 6.18766C15.0934 5.85102 15.027 5.51768 14.8981 5.2067C14.7692 4.89572 14.5802 4.61322 14.342 4.37533L10.71 0.751329C10.4729 0.513215 10.1911 0.324273 9.88075 0.19535C9.57043 0.0664272 9.2377 6.10352e-05 8.90166 6.10352e-05C8.56563 6.10352e-05 8.2329 0.0664272 7.92257 0.19535C7.61225 0.324273 7.33044 0.513215 7.09333 0.751329V0.751329Z" fill="#98CA3F"/>
</svg>
