<svg width="24" height="24" viewBox="0 0 24 24" fill="none" xmlns="http://www.w3.org/2000/svg">
<mask id="mask0_636_445" style="mask-type:luminance" maskUnits="userSpaceOnUse" x="0" y="0" width="24" height="24">
<path d="M18.375 0H5.625C2.5184 0 0 2.5184 0 5.625V18.375C0 21.4816 2.5184 24 5.625 24H18.375C21.4816 24 24 21.4816 24 18.375V5.625C24 2.5184 21.4816 0 18.375 0Z" fill="white"/>
</mask>
<g mask="url(#mask0_636_445)">
<path d="M18.375 0H5.625C2.5184 0 0 2.5184 0 5.625V18.375C0 21.4816 2.5184 24 5.625 24H18.375C21.4816 24 24 21.4816 24 18.375V5.625C24 2.5184 21.4816 0 18.375 0Z" fill="#59B943"/>
<path fill-rule="evenodd" clip-rule="evenodd" d="M21.9165 -0.5625H24V24.4688H23.8063C23.8305 24.4688 23.8545 24.4641 23.8769 24.4549C23.8993 24.4457 23.9197 24.4322 23.9368 24.4151C23.9539 24.398 23.9675 24.3777 23.9768 24.3553C23.9861 24.3329 23.9908 24.3089 23.9908 24.2847V3.16275C24.0054 3.11975 24.0023 3.07271 23.9823 3.03197C23.9622 2.99124 23.9267 2.96015 23.8837 2.94553C23.8407 2.93093 23.7937 2.93397 23.7529 2.95398C23.7121 2.97399 23.6809 3.00935 23.6661 3.05231L15.9152 11.7323C15.893 11.7561 15.8662 11.7752 15.8364 11.7882C15.8065 11.8013 15.7743 11.808 15.7417 11.808C15.7091 11.808 15.6769 11.8013 15.6471 11.7882C15.6172 11.7752 15.5904 11.7561 15.5682 11.7323L11.6116 7.66097C11.5781 7.61923 11.5598 7.56731 11.5598 7.51378C11.5598 7.46026 11.5781 7.40833 11.6116 7.36659L12.9181 5.69531C12.94 5.6649 12.9689 5.64013 13.0022 5.62305C13.0356 5.60596 13.0726 5.59705 13.11 5.59705C13.1475 5.59705 13.1845 5.60596 13.2179 5.62305C13.2512 5.64013 13.2801 5.6649 13.302 5.69531L15.5166 8.13956C15.5388 8.16589 15.5665 8.18704 15.5977 8.20156C15.6289 8.21607 15.663 8.22359 15.6974 8.22359C15.7318 8.22359 15.7659 8.21607 15.7971 8.20156C15.8283 8.18704 15.856 8.16589 15.8783 8.13956L22.0494 -0.297469C22.0666 -0.322406 22.0767 -0.351469 22.0789 -0.381656C22.0809 -0.411832 22.0748 -0.441991 22.0612 -0.46902C22.0476 -0.496048 22.0271 -0.518966 22.0017 -0.535406C21.9762 -0.551874 21.9468 -0.561228 21.9165 -0.5625ZM0.1845 -0.5625H0V-0.378469C0 -0.427219 0.0194063 -0.474094 0.0540938 -0.508594C0.0886875 -0.543094 0.135656 -0.5625 0.1845 -0.5625ZM0 24.2847V24.4688H0.1845C0.135614 24.4687 0.0887256 24.4493 0.0540938 24.4148C0.0369624 24.3978 0.0233662 24.3775 0.0140839 24.3552C0.00480166 24.3328 1.56384e-05 24.3089 0 24.2847ZM15.8407 15.285C15.3829 15.271 14.9365 15.4289 14.5893 15.7276C14.2433 16.0252 14.0223 16.4424 13.9706 16.8958C13.9684 16.9046 13.9682 16.9138 13.9701 16.9226C13.972 16.9315 13.976 16.9398 13.9816 16.9469C13.9873 16.954 13.9946 16.9596 14.0029 16.9634C14.0112 16.9672 14.0202 16.969 14.0293 16.9688H17.6596C17.6679 16.9687 17.6762 16.967 17.6838 16.9636C17.6915 16.9603 17.6983 16.9553 17.7039 16.9492C17.7095 16.943 17.7137 16.9357 17.7162 16.9277C17.7186 16.9198 17.7194 16.9114 17.7183 16.9031C17.6822 16.4415 17.465 16.0128 17.114 15.7107C16.7617 15.4075 16.3045 15.2547 15.8407 15.285ZM2.45072 20.2503C3.61828 21.2728 5.1379 21.8009 6.68794 21.7227H6.68044C9.47822 21.7227 10.8291 20.2944 10.8291 18.4244C10.8291 16.0791 8.64666 15.5566 6.92531 15.1445C5.80463 14.8761 4.87941 14.6546 4.87941 14.0072C4.87941 13.3887 5.41087 12.9691 6.35569 12.9691C7.38389 12.9594 8.38436 13.3024 9.19031 13.9409C9.21412 13.9613 9.24186 13.9765 9.2718 13.9857C9.30175 13.9949 9.33327 13.9978 9.36441 13.9943C9.39551 13.9908 9.42558 13.981 9.45275 13.9655C9.47993 13.95 9.50366 13.9291 9.52247 13.9041L10.4304 12.6452C10.4714 12.6027 10.4943 12.5459 10.4943 12.4869C10.4943 12.4278 10.4714 12.3711 10.4304 12.3286C9.3374 11.443 7.96087 10.9828 6.555 11.0329C4.10428 11.0329 2.62791 12.4612 2.62791 14.1765C2.62791 16.4829 4.72781 16.9803 6.43566 17.3847C7.60613 17.6619 8.59237 17.8955 8.59237 18.638C8.59237 19.2269 8.00184 19.7864 6.79125 19.7864C5.64237 19.7902 4.53467 19.3588 3.69094 18.579C3.65167 18.555 3.60609 18.5435 3.56015 18.5458C3.5142 18.5482 3.47004 18.5643 3.43341 18.5921C3.4091 18.6105 3.3887 18.6336 3.37341 18.66L2.45072 19.9484C2.4139 19.9901 2.39357 20.0437 2.39357 20.0993C2.39357 20.1549 2.4139 20.2086 2.45072 20.2503ZM19.681 18.2174C19.6911 18.1919 19.6957 18.1646 19.6946 18.1373L19.6872 17.9017C19.6872 15.3912 18.1297 13.6759 15.8339 13.6759C15.3042 13.6667 14.7781 13.7647 14.2873 13.9641C13.7969 14.1633 13.3518 14.4597 12.979 14.8356C12.6066 15.2111 12.3142 15.6582 12.1196 16.15C11.9252 16.6415 11.8327 17.1673 11.8477 17.6956C11.8264 18.2369 11.9186 18.7766 12.1185 19.2801C12.3186 19.7838 12.6219 20.2402 13.0088 20.6198C13.3962 20.9999 13.8586 21.2948 14.3665 21.4858C14.8747 21.6771 15.4173 21.7602 15.9594 21.73C17.0445 21.7574 18.1083 21.4262 18.986 20.7877C19.0258 20.7559 19.0525 20.7104 19.0606 20.66C19.0688 20.6097 19.058 20.5581 19.0302 20.5153L18.3659 19.5508C18.3427 19.5152 18.3087 19.488 18.2689 19.473C18.2291 19.4581 18.1856 19.4562 18.1447 19.4677C18.1175 19.4753 18.0923 19.4886 18.0706 19.5067C17.5159 19.8956 16.8582 20.1109 16.1809 20.1251C15.6648 20.1677 15.1513 20.016 14.7412 19.6999C14.3316 19.3842 14.0551 18.9265 13.9663 18.4171C13.9653 18.4084 13.966 18.3995 13.9684 18.3911C13.9708 18.3827 13.9749 18.3748 13.9805 18.368C13.986 18.3611 13.9928 18.3554 14.0005 18.3512C14.0082 18.347 14.0166 18.3444 14.0254 18.3435H19.4879C19.5154 18.3445 19.5427 18.3398 19.5682 18.3299C19.5938 18.32 19.617 18.3048 19.6364 18.2855C19.6558 18.2661 19.671 18.2429 19.681 18.2174Z" fill="white"/>
</g>
</svg>
