<svg width="24" height="24" viewBox="0 0 24 24" fill="none" xmlns="http://www.w3.org/2000/svg">
<path d="M18.375 0H5.625C2.5184 0 0 2.5184 0 5.625V18.375C0 21.4816 2.5184 24 5.625 24H18.375C21.4816 24 24 21.4816 24 18.375V5.625C24 2.5184 21.4816 0 18.375 0Z" fill="#99424F"/>
<path d="M20.0019 11.8589C20.0019 10.7297 19.2256 9.77972 18.1834 9.50831L20.5176 2.625H8.94949L11.2892 9.53006C10.2794 9.82322 9.53581 10.7569 9.53581 11.8643C9.53581 12.6786 9.94287 13.4005 10.5617 13.8457C10.3175 14.1931 10.0352 14.5134 9.71487 14.8174C9.11234 15.3819 8.44465 15.8162 7.72268 16.1039C7.07121 15.6642 6.78893 14.888 7.04412 14.1931C8.03749 13.8892 8.75946 12.9608 8.75946 11.8697C8.75946 10.5289 7.6684 9.44316 6.33293 9.44316C4.99212 9.44316 3.90106 10.5343 3.90106 11.8751C3.90106 12.5374 4.17246 13.1454 4.60671 13.5797C4.56874 13.6557 4.53077 13.7317 4.49271 13.8131C4.12896 14.5623 3.71646 15.4091 3.55896 16.3591C3.24415 18.259 3.75987 19.7844 5.00299 20.6476C5.70331 21.1307 6.47412 21.375 7.30465 21.375C8.73237 21.375 10.1817 20.6585 11.5823 19.9636C12.5812 19.4696 13.6125 18.9539 14.6276 18.7042C15.0023 18.6119 15.3931 18.5576 15.8057 18.4979C16.6417 18.3785 17.5048 18.2536 18.2811 17.803C19.1876 17.2765 19.8065 16.3971 19.9856 15.3874C20.1213 14.6111 19.9856 13.8294 19.6382 13.1454C19.8716 12.7708 20.0019 12.3311 20.0019 11.8589ZM18.9433 11.8589C18.9433 12.6134 18.3299 13.2268 17.5753 13.2268C16.8208 13.2268 16.2074 12.6134 16.2074 11.8589C16.2074 11.6146 16.2725 11.3812 16.3865 11.1803C16.4309 11.1037 16.4818 11.0311 16.5386 10.9631C16.5928 10.8981 16.658 10.8383 16.7285 10.7841L16.7339 10.7786C16.7773 10.746 16.8263 10.7135 16.8751 10.6808C16.8751 10.6808 16.8806 10.6808 16.8806 10.6754C16.9022 10.6646 16.924 10.6483 16.9456 10.6374C16.9511 10.6374 16.9565 10.632 16.9619 10.632C16.9837 10.6211 17.0108 10.6103 17.038 10.5995C17.0651 10.5886 17.0922 10.5777 17.1139 10.5668C17.1193 10.5668 17.1248 10.5614 17.1302 10.5614C17.152 10.5561 17.1736 10.5452 17.1954 10.5398C17.2008 10.5398 17.2117 10.5343 17.2171 10.5343C17.2442 10.5289 17.266 10.5234 17.2931 10.518H17.2985L17.38 10.5018C17.3854 10.5018 17.3962 10.5018 17.4016 10.4963C17.4234 10.4963 17.4451 10.4909 17.4668 10.4909H17.494C17.5211 10.4909 17.5482 10.4855 17.5808 10.4855H17.6514C17.6731 10.4855 17.6893 10.4855 17.7111 10.4909H17.722C17.7654 10.4963 17.8088 10.5018 17.8522 10.5126C18.471 10.6429 18.9433 11.1966 18.9433 11.8589ZM10.464 3.71072H19.0031L17.0434 9.492C16.9619 9.50831 16.8806 9.5355 16.7991 9.56259L14.7363 5.35556L12.668 9.5355C12.5866 9.50831 12.4997 9.492 12.4129 9.47578L10.464 3.71072ZM14.3454 11.3866C14.2422 10.8763 13.9817 10.4203 13.6125 10.0837L14.7363 7.81463L15.8708 10.1326C15.5342 10.4692 15.29 10.8981 15.1922 11.3866H14.3454ZM11.6258 10.5289C11.6529 10.5234 11.6746 10.518 11.7017 10.5126H11.718C11.7398 10.5071 11.7614 10.5071 11.7832 10.5018H11.8048C11.8266 10.5018 11.8429 10.4963 11.8646 10.4963H12.0763C12.098 10.4963 12.1143 10.5018 12.1306 10.5018C12.1415 10.5018 12.1468 10.5018 12.1577 10.5071C12.1795 10.5126 12.1958 10.5126 12.2174 10.518C12.2229 10.518 12.2283 10.518 12.2392 10.5234C12.2663 10.5289 12.2935 10.5343 12.3151 10.5398H12.3206C12.3423 10.5452 12.3641 10.5506 12.3857 10.5614C12.3911 10.5614 12.3966 10.5668 12.4075 10.5668C12.4238 10.5723 12.4454 10.5777 12.4617 10.5886C12.4672 10.5886 12.4726 10.594 12.4781 10.594C12.4997 10.6049 12.5215 10.6103 12.5431 10.6211H12.5486C12.5757 10.632 12.5974 10.6429 12.6192 10.6592H12.6246C12.6463 10.6701 12.668 10.6863 12.6897 10.6972C12.6952 10.6972 12.6952 10.7026 12.7006 10.7026C12.7223 10.7135 12.7386 10.7297 12.7603 10.7406L12.7657 10.746C12.8308 10.7948 12.8906 10.8491 12.9503 10.9034L12.9557 10.9088C13.01 10.9686 13.0643 11.0337 13.1077 11.1043C13.2533 11.327 13.3307 11.5874 13.3302 11.8535C13.3302 12.608 12.7168 13.2214 11.9623 13.2214C11.2077 13.2214 10.5943 12.608 10.5943 11.8535C10.5889 11.2183 11.0286 10.6808 11.6258 10.5289ZM6.28409 10.4909C7.03868 10.4909 7.65209 11.1043 7.65209 11.8589C7.65209 12.6134 7.03868 13.2268 6.28409 13.2268C5.52959 13.2268 4.91609 12.6134 4.91609 11.8589C4.91609 11.1043 5.52959 10.4909 6.28409 10.4909ZM18.9108 15.1973C18.7914 15.8922 18.3625 16.5002 17.7327 16.8639C17.1411 17.2059 16.4137 17.3145 15.6482 17.4231C15.2303 17.4828 14.7906 17.5479 14.3671 17.6511C13.238 17.9279 12.1523 18.4707 11.0992 18.9919C9.75293 19.6596 8.48262 20.2893 7.30465 20.2893C6.69124 20.2893 6.14299 20.1156 5.62184 19.7519C4.42756 18.9267 4.48727 17.3797 4.62846 16.5328C4.75877 15.7403 5.12243 14.9965 5.46987 14.2854C5.49152 14.2419 5.50784 14.204 5.52959 14.1606C5.65118 14.2045 5.77655 14.2372 5.90412 14.2582C5.69787 15.4091 6.28409 16.598 7.42409 17.1842L7.63034 17.2927L7.8529 17.2114C8.80296 16.8748 9.68234 16.3265 10.4586 15.5936C10.8984 15.1811 11.2729 14.736 11.5877 14.2528C11.7126 14.2746 11.8375 14.28 11.9623 14.28C13.0915 14.28 14.0414 13.5037 14.3128 12.4614H15.2248C15.4962 13.5091 16.4462 14.28 17.5753 14.28C18.0259 14.28 18.4439 14.1551 18.8022 13.9434C18.9433 14.3505 18.9867 14.774 18.9108 15.1973Z" fill="white"/>
</svg>
