<svg width="43" height="16" viewBox="0 0 43 16" fill="none" xmlns="http://www.w3.org/2000/svg">
<path d="M6.59611 3.80709L3.2987 1.90359L0.0022049 3.80709V1.90359L3.2992 0L6.59661 1.90359V3.80709H6.59611Z" fill="#A435F0"/>
<path d="M0.0022049 5.40559H1.72929V9.60173C1.72929 10.6859 2.53891 11.2143 3.2992 11.2143C4.06604 11.2143 4.86952 10.6718 4.86952 9.58723V5.40567H6.59661V9.70171C6.59661 10.7004 6.28258 11.4711 5.65468 11.9995C5.02629 12.5276 4.24154 12.7847 3.28461 12.7847C2.32859 12.7847 1.54343 12.528 0.930039 11.9996C0.316153 11.4714 0.0022049 10.7294 0.0022049 9.74432V5.40559ZM21.5279 10.6207C21.0051 11.0863 20.4096 11.3143 19.7305 11.3143C18.4915 11.3143 17.6607 10.6085 17.5669 9.51535H23.1471C23.1471 9.51535 23.1846 9.16252 23.1846 8.83116C23.1846 7.80335 22.8561 6.94681 22.185 6.24754C21.5289 5.54826 20.6729 5.20563 19.6305 5.20563C18.5318 5.20563 17.6321 5.54826 16.9183 6.24754C16.219 6.94681 15.8623 7.86014 15.8623 9.00244V9.05881C15.8623 10.1865 16.219 11.0858 16.9183 11.7568C17.6176 12.4275 18.5455 12.7701 19.6732 12.7701C20.9845 12.7701 22.0277 12.2529 22.8106 11.3612L21.5279 10.6207ZM18.2455 7.11809C18.6304 6.81823 19.1021 6.66146 19.63 6.66146C20.1294 6.66146 20.5433 6.81823 20.9004 7.13268C21.2412 7.41894 21.4252 7.77052 21.4411 8.17458H17.6111C17.6664 7.75684 17.8776 7.40492 18.246 7.11858L18.2455 7.11817V7.11809ZM38.9134 13.7398C38.2127 15.3941 37.4796 15.9568 36.3556 15.9568H35.5765V14.4259H36.2063C36.593 14.4259 36.9526 14.2804 37.2951 13.4901L37.6378 12.6988L34.6829 5.40559H36.4387L38.5369 10.6582L40.6925 5.40559H42.4478L38.9139 13.7397H38.9134V13.7398ZM13.32 2.65118V6.05703C12.754 5.55017 11.8736 5.24841 11.0222 5.24841C10.0085 5.24841 9.15246 5.60505 8.45319 6.33251C7.76801 7.04629 7.42538 7.93102 7.42538 9.00153C7.42538 10.0725 7.76801 10.9572 8.45319 11.6851C9.15246 12.3988 10.009 12.7561 11.0223 12.7561C12.1909 12.7561 12.9295 12.2966 13.32 11.9367V12.5989H15.0331V2.6516H13.32V2.65118ZM12.8061 10.5723C12.3922 10.9863 11.8643 11.2007 11.2504 11.2007C10.6365 11.2007 10.1372 10.9863 9.72316 10.5723C9.32424 10.1584 9.12386 9.63042 9.12386 9.00244C9.12386 8.37404 9.32382 7.84604 9.72324 7.43212C10.1372 7.01819 10.6365 6.80414 11.2503 6.80414C11.8643 6.80414 12.3922 7.01819 12.8061 7.43212C13.2341 7.84604 13.4491 8.37404 13.4491 9.00244C13.4491 9.63042 13.2341 10.1584 12.8061 10.5723ZM32.02 5.26291C30.7191 5.26291 30.0428 5.8026 29.5796 6.32264C29.3942 5.96924 28.8723 5.26291 27.6529 5.26291C26.6224 5.26291 26.0151 5.78387 25.7119 6.1546V5.4065H24.0139V12.5998H25.7119V8.46043C25.7119 7.48982 26.3117 6.79054 27.1104 6.79054C27.9248 6.79054 28.3954 7.40443 28.3954 8.38905V12.5993H30.094V8.45993C30.094 7.47531 30.6787 6.79013 31.5207 6.79013C32.3345 6.79013 32.8052 7.40393 32.8052 8.38814V12.5989H34.5182V8.1459C34.5182 6.2705 33.5101 5.26333 32.02 5.26333V5.26283V5.26291Z" fill="black"/>
</svg>
