<svg width="24" height="24" viewBox="0 0 24 24" fill="none" xmlns="http://www.w3.org/2000/svg">
<path d="M12 22.5C11.7167 22.5001 11.4383 22.4256 11.193 22.284L8.62498 20.7637C8.24173 20.5492 8.42848 20.4735 8.55523 20.4292C8.96283 20.3033 9.35311 20.127 9.71698 19.9042C9.74743 19.8902 9.78098 19.8841 9.81445 19.8866C9.84792 19.8891 9.88019 19.9001 9.90823 19.9185L11.8815 21.0907C11.9182 21.1102 11.9592 21.1203 12.0007 21.1203C12.0423 21.1203 12.0832 21.1102 12.12 21.0907L19.815 16.6492C19.851 16.6277 19.8808 16.5971 19.9014 16.5606C19.9221 16.524 19.9328 16.4827 19.9327 16.4407V7.55625C19.9328 7.51361 19.9218 7.47168 19.9009 7.4345C19.88 7.39733 19.8499 7.36616 19.8135 7.344L12.1185 2.90625C12.0822 2.88581 12.0412 2.87508 11.9996 2.87508C11.958 2.87508 11.917 2.88581 11.8807 2.90625L4.19023 7.3455C4.15354 7.36719 4.12308 7.39799 4.1018 7.43492C4.08051 7.47184 4.06912 7.51363 4.06873 7.55625V16.437C4.06883 16.4789 4.08007 16.52 4.10129 16.5561C4.1225 16.5922 4.15294 16.622 4.18948 16.6425L6.29998 17.8605C7.44373 18.432 8.14423 17.7585 8.14423 17.082V8.31375C8.14423 8.25407 8.16793 8.19684 8.21013 8.15465C8.25232 8.11245 8.30955 8.08875 8.36923 8.08875H9.34423C9.4039 8.08875 9.46113 8.11245 9.50332 8.15465C9.54552 8.19684 9.56923 8.25407 9.56923 8.31375V17.0827C9.56923 18.609 8.73823 19.4827 7.29073 19.4827C6.66626 19.4936 6.05158 19.3266 5.51848 19.0012L3.49573 17.841C3.25017 17.698 3.04641 17.4931 2.90481 17.2467C2.7632 17.0004 2.68869 16.7212 2.68873 16.437V7.55625C2.688 7.27164 2.76219 6.99186 2.90384 6.74502C3.0455 6.49817 3.24963 6.29296 3.49573 6.15L11.1915 1.707C11.4394 1.57137 11.7174 1.50029 12 1.50029C12.2825 1.50029 12.5606 1.57137 12.8085 1.707L20.5035 6.15C20.749 6.29272 20.9528 6.49734 21.0945 6.74344C21.2363 6.98953 21.311 7.2685 21.3112 7.5525V16.437C21.3108 16.7212 21.236 17.0003 21.0943 17.2466C20.9526 17.4929 20.7489 17.6978 20.5035 17.841L12.8085 22.284C12.5627 22.4258 12.2838 22.5003 12 22.5Z" fill="#83CD29"/>
<path d="M10.5405 13.4647C10.5405 13.4051 10.5642 13.3478 10.6064 13.3056C10.6486 13.2635 10.7059 13.2397 10.7655 13.2397H11.7608C11.814 13.2399 11.8654 13.2589 11.9059 13.2934C11.9464 13.3278 11.9733 13.3755 11.982 13.428C12.132 14.4412 12.582 14.952 14.6168 14.952C16.2375 14.952 16.9283 14.5852 16.9283 13.725C16.9283 13.2292 16.7325 12.861 14.2133 12.6142C12.1073 12.4057 10.8053 11.9392 10.8053 10.2562C10.8053 8.70375 12.114 7.7775 14.3078 7.7775C16.773 7.7775 17.9933 8.63325 18.1478 10.4692C18.1501 10.4999 18.1462 10.5307 18.1362 10.5598C18.1262 10.5888 18.1103 10.6156 18.0896 10.6383C18.0688 10.661 18.0437 10.6792 18.0156 10.6918C17.9876 10.7044 17.9573 10.7111 17.9265 10.7115H16.9245C16.8743 10.7108 16.8257 10.6933 16.7865 10.6617C16.7474 10.6302 16.7199 10.5865 16.7085 10.5375C16.4693 9.47175 15.8835 9.13125 14.3085 9.13125C12.5385 9.13125 12.333 9.74775 12.333 10.2097C12.333 10.7692 12.576 10.9327 14.9655 11.2485C17.3303 11.5612 18.4538 12.0037 18.4538 13.6657C18.4538 15.3427 17.0558 16.3027 14.6175 16.3027C11.2463 16.3072 10.5405 14.7615 10.5405 13.4647Z" fill="#83CD29"/>
</svg>
